<svg width="12" height="11" viewBox="0 0 12 11" fill="none" xmlns="http://www.w3.org/2000/svg">
<path d="M0.674534 4.4356L0.655803 4.4397H8.68566L6.16136 1.90985C6.03775 1.78633 5.96995 1.61902 5.96995 1.44341C5.96995 1.2678 6.03775 1.10165 6.16136 0.977847L6.55414 0.584871C6.67766 0.461359 6.84224 0.393066 7.01775 0.393066C7.19336 0.393066 7.35805 0.460871 7.48156 0.584384L11.8087 4.91111C11.9327 5.03511 12.0005 5.20029 12 5.37599C12.0005 5.55268 11.9327 5.71794 11.8087 5.84175L7.48156 10.1689C7.35805 10.2923 7.19346 10.3602 7.01775 10.3602C6.84224 10.3602 6.67766 10.2922 6.55414 10.1689L6.16136 9.77589C6.03775 9.65258 5.96995 9.48789 5.96995 9.31228C5.96995 9.13677 6.03775 8.98077 6.16136 8.85736L8.71414 6.31336H0.665558C0.3039 6.31336 -2.86102e-06 6.00165 -2.86102e-06 5.64019V5.08438C-2.86102e-06 4.72292 0.312876 4.4356 0.674534 4.4356Z" fill="#3C3F42"/>
</svg>
