<svg width="30" height="30" viewBox="0 0 30 30" fill="none" xmlns="http://www.w3.org/2000/svg">
<path d="M13.2348 19.4114C12.7672 19.4097 12.3198 19.2226 11.9907 18.8908L9.34368 16.2438C8.65456 15.5547 8.65456 14.4358 9.34368 13.7468C10.0328 13.0577 11.1517 13.0576 11.8407 13.7468L13.3319 15.2379L18.2642 11.0114C19.0734 10.4679 20.1701 10.6841 20.7128 11.4932C21.1636 12.1656 21.1001 13.0576 20.5584 13.6585L14.3819 18.9526C14.0669 19.2385 13.6602 19.4017 13.2348 19.4114Z" fill="#4493F2"/>
<path d="M15 30C6.71561 30 0 23.2844 0 15C0 6.71561 6.71561 0 15 0C23.2844 0 30 6.71561 30 15C30 23.2844 23.2844 30 15 30ZM15 3.52939C8.66473 3.52939 3.52939 8.66473 3.52939 15C3.52939 21.3353 8.66473 26.4706 15 26.4706C21.3353 26.4706 26.4706 21.3353 26.4706 15C26.4706 8.66473 21.3353 3.52939 15 3.52939Z" fill="#4493F2"/>
</svg>
