<svg width="8" height="8" viewBox="0 0 8 8" fill="none" xmlns="http://www.w3.org/2000/svg">
<path d="M7.72964 1.57572L5.30567 3.99995L7.72964 6.42405C8.09019 6.78474 8.09019 7.36901 7.72964 7.72971C7.54949 7.90986 7.3133 8 7.07722 8C6.84076 8 6.60455 7.90999 6.42453 7.72971L4.00004 5.30532L1.57572 7.72968C1.3956 7.90983 1.15938 7.99998 0.923104 7.99998C0.686892 7.99998 0.450841 7.90997 0.270553 7.72968C-0.0900006 7.36915 -0.0900006 6.78486 0.270553 6.42403L2.69445 3.99992L0.270415 1.57572C-0.0901383 1.21517 -0.0901383 0.630762 0.270415 0.270208C0.630899 -0.0900694 1.21496 -0.0900694 1.57559 0.270208L4.00001 2.69443L6.42426 0.270208C6.78495 -0.0900694 7.36908 -0.0900694 7.7295 0.270208C8.09019 0.630762 8.09019 1.21517 7.72964 1.57572Z" fill="#74828E"/>
</svg>
