<svg width="18" height="18" viewBox="0 0 18 18" fill="none" xmlns="http://www.w3.org/2000/svg">
<circle cx="9" cy="9" r="8" stroke="#4493F2" stroke-width="2"/>
<path d="M8.90374 5.40173C7.55903 5.45193 6.44191 6.56797 6.31285 7.99254C6.28649 8.27746 6.30175 8.55352 6.34894 8.81776C6.34894 8.81776 6.3531 8.84877 6.36698 8.90781C6.40861 9.10563 6.47105 9.29754 6.54877 9.47764C6.81937 10.1597 7.44524 11.3008 8.84962 12.5423C8.93565 12.6191 9.06194 12.6191 9.14936 12.5423C10.5537 11.3023 11.1796 10.1611 11.4516 9.47617C11.5307 9.29607 11.5918 9.10563 11.6334 8.90634C11.6459 8.84877 11.6514 8.81629 11.6514 8.81629C11.6834 8.63914 11.7 8.45756 11.7 8.27155C11.7 6.65064 10.4386 5.34416 8.90374 5.40173ZM8.99949 9.70056C8.2751 9.70056 7.68809 9.07611 7.68809 8.30551C7.68809 7.53491 8.2751 6.91046 8.99949 6.91046C9.72388 6.91046 10.3109 7.53491 10.3109 8.30551C10.3109 9.07611 9.72388 9.70056 8.99949 9.70056Z" fill="#4493F2"/>
</svg>
