<svg width="194" height="52" viewBox="0 0 194 52" fill="none" xmlns="http://www.w3.org/2000/svg">
<rect x="1" y="1" width="192" height="50" rx="2" stroke="#3C3F42" stroke-width="2"/>
<path d="M39.292 18.5607V34.8627H37.056V21.1607C36.7267 21.4553 36.4233 21.8367 36.146 22.3047C35.8687 22.7553 35.5913 23.232 35.314 23.7347C35.002 24.3413 34.69 24.948 34.378 25.5547C34.0833 26.144 33.7453 26.6727 33.364 27.1407C33 27.6087 32.5753 27.99 32.09 28.2847C31.622 28.562 31.05 28.7007 30.374 28.7007C29.698 28.7007 29.126 28.562 28.658 28.2847C28.19 28.0073 27.774 27.6433 27.41 27.1927C27.0633 26.7247 26.7513 26.2047 26.474 25.6327C26.1967 25.0607 25.9107 24.48 25.616 23.8907C25.3213 23.336 25.0267 22.8247 24.732 22.3567C24.4547 21.8713 24.1427 21.4727 23.796 21.1607V34.8627H21.56V18.5607H23.744C24.2467 18.734 24.6887 18.9853 25.07 19.3147C25.4687 19.6267 25.824 19.9907 26.136 20.4067C26.448 20.8053 26.7253 21.2387 26.968 21.7067C27.228 22.1573 27.4793 22.608 27.722 23.0587C27.982 23.5787 28.2073 24.0553 28.398 24.4887C28.5887 24.9047 28.7793 25.26 28.97 25.5547C29.1607 25.832 29.36 26.0487 29.568 26.2047C29.7933 26.3607 30.062 26.4387 30.374 26.4387C30.7033 26.4387 30.9807 26.3607 31.206 26.2047C31.4313 26.0487 31.6393 25.832 31.83 25.5547C32.038 25.26 32.2373 24.9047 32.428 24.4887C32.636 24.0553 32.87 23.5787 33.13 23.0587C33.3553 22.608 33.598 22.1573 33.858 21.7067C34.118 21.2387 34.404 20.8053 34.716 20.4067C35.028 19.9907 35.3747 19.6267 35.756 19.3147C36.1547 18.9853 36.6053 18.734 37.108 18.5607H39.292ZM53.7937 34.8887H42.4057V18.5607H53.3517V20.8747H44.6937V25.4247C45.1617 25.598 45.6124 25.6847 46.0457 25.6847C46.6177 25.6847 47.155 25.598 47.6577 25.4247C48.1604 25.2513 48.6717 25.1647 49.1917 25.1647C49.625 25.1647 50.0324 25.26 50.4137 25.4507V27.8427C49.963 27.6867 49.5384 27.6087 49.1397 27.6087C48.6024 27.6087 48.0824 27.678 47.5797 27.8167C47.077 27.9553 46.5397 28.0247 45.9677 28.0247C45.5517 28.0247 45.127 27.964 44.6937 27.8427V32.6007H53.7937V34.8887ZM56.9038 34.8367V18.6127C57.6838 18.526 58.5418 18.448 59.4778 18.3787C60.4138 18.292 61.3844 18.2487 62.3898 18.2487C63.6551 18.2487 64.8684 18.4307 66.0298 18.7947C67.1911 19.1587 68.2138 19.696 69.0978 20.4067C69.9818 21.1173 70.6838 21.9927 71.2038 23.0327C71.7411 24.0553 72.0098 25.2427 72.0098 26.5947C72.0098 28.0853 71.7411 29.368 71.2038 30.4427C70.6838 31.5173 69.9644 32.4013 69.0458 33.0947C68.1444 33.788 67.0871 34.2993 65.8738 34.6287C64.6778 34.958 63.3951 35.1227 62.0257 35.1227C61.5578 35.1227 61.0638 35.114 60.5438 35.0967C60.0238 35.0967 59.5298 35.0793 59.0618 35.0447C58.5938 35.0273 58.1691 35.0013 57.7878 34.9667C57.4064 34.932 57.1118 34.8887 56.9038 34.8367ZM59.1918 20.7447V32.6787C59.5558 32.7653 59.9891 32.8347 60.4918 32.8867C60.9944 32.9213 61.4364 32.9387 61.8178 32.9387C62.8751 32.9387 63.8804 32.8173 64.8338 32.5747C65.7871 32.332 66.6278 31.9593 67.3558 31.4567C68.0838 30.9367 68.6644 30.278 69.0978 29.4807C69.5311 28.6833 69.7478 27.7213 69.7478 26.5947C69.7478 25.5027 69.5138 24.5753 69.0458 23.8127C68.5951 23.05 67.9971 22.426 67.2518 21.9407C66.5238 21.4553 65.7004 21.1 64.7818 20.8747C63.8804 20.6493 62.9791 20.5367 62.0778 20.5367C61.5231 20.5367 60.9944 20.5627 60.4918 20.6147C59.9891 20.6493 59.5558 20.6927 59.1918 20.7447Z" fill="#3C3F42"/>
<path d="M91.5454 23.8665C91.6022 24.9874 91.6342 26.0169 91.7194 27.0424C91.7549 27.4809 91.6732 27.6715 91.2436 27.6029C91.1447 27.5873 91.0443 27.5873 90.9454 27.6029C90.5477 27.6639 90.3134 27.5572 90.4022 27.0539C90.4519 26.787 90.3134 26.7222 90.0826 26.7184C89.2589 26.7006 88.4304 26.6714 87.5972 26.6307C87.3487 26.6307 87.2883 26.7222 87.2883 26.9738C87.2883 27.7058 87.2706 27.7058 86.5782 27.7058H86.4504C85.8894 27.7058 85.9001 27.7058 85.8397 27.0882C85.7367 26.0283 85.6302 24.9684 85.5095 23.9085C85.474 23.5997 85.5273 23.4624 85.8646 23.4891C86.2019 23.5158 86.5747 23.4624 86.9297 23.4891C87.2848 23.5158 87.3913 23.3556 87.3877 22.9744C87.37 21.3121 87.3877 19.6498 87.3877 17.9875C87.3877 17.2249 87.6114 17 88.3038 17H91.8827C92.5218 17 92.7562 17.2554 92.7562 17.9379C92.7562 19.646 92.7562 21.3693 92.7562 23.0621C92.7562 23.4128 92.8485 23.5005 93.1609 23.4891C93.8 23.4624 94.4391 23.4891 95.0782 23.4891C95.3622 23.4891 95.4333 23.5577 95.3871 23.8703C95.1492 25.0599 94.9113 26.2532 94.7054 27.4504C94.6166 27.9765 94.2687 27.744 94.0166 27.7745C93.69 27.8126 93.8107 27.5228 93.8036 27.3589C93.7716 26.7527 93.9882 26.0512 93.7184 25.5632C93.4485 25.0751 92.8591 24.8464 92.4082 24.5032C92.1455 24.305 91.8792 24.122 91.5454 23.8665Z" fill="#4493F2"/>
<path d="M84.9632 24.4085C85.0531 25.2787 85.1574 26.1452 85.2257 27.0118C85.2581 27.4209 85.3696 27.6217 85.8191 27.5696C86.2206 27.5406 86.6239 27.5493 87.0239 27.5957C87.3296 27.618 87.4159 27.4952 87.4087 27.1903C87.4087 26.5543 87.4087 26.5469 88.0165 26.5618C88.4912 26.5618 88.9623 26.6138 89.4371 26.6027C89.7212 26.6027 89.8435 26.6957 89.7967 26.9746C89.7212 27.3874 89.9082 27.4766 90.2714 27.4506C90.6724 27.417 91.0753 27.417 91.4762 27.4506C91.8359 27.4878 91.9042 27.3204 91.8862 26.9932C91.8323 26.0932 91.7999 25.1895 91.7531 24.2002L93.1377 25.2006C93.2672 25.2936 93.2492 25.4275 93.2492 25.5725C93.2492 26.1378 93.2492 26.6882 93.2492 27.2684C93.2492 27.5696 93.3427 27.6403 93.6089 27.6403C94.7705 27.6403 94.7669 27.6403 94.9863 26.4762C95.0726 26.0151 95.1697 25.5539 95.2632 25.0928H95.3999C95.3999 26.2085 95.3999 27.3242 95.3999 28.4399C95.3999 28.7114 95.238 28.6704 95.087 28.6704C94.3677 28.6704 93.6484 28.6704 92.9292 28.6704C92.6199 28.6704 92.5443 28.7671 92.5479 29.0758C92.5479 30.7419 92.5479 32.4229 92.5479 34.0704C92.5479 34.7585 92.3106 35.0002 91.6345 35.0002H88.0165C87.3512 35.0002 87.1138 34.751 87.1138 34.0556C87.1138 32.4043 87.1138 30.7568 87.1138 29.1056C87.1138 28.782 87.0455 28.6556 86.711 28.6704C86.1068 28.6965 85.5026 28.6704 84.9128 28.6704C84.6826 28.6704 84.5784 28.6333 84.6035 28.3506C84.7186 27.0266 84.8085 25.699 84.9092 24.375H84.9704" fill="#4493F2"/>
<path d="M81.0131 25.1446C81.0131 24.787 81.0131 24.4294 81.0131 24.0718C81.0049 23.9678 81.0194 23.8632 81.0556 23.7655C81.0919 23.6677 81.149 23.5791 81.223 23.5058C81.297 23.4325 81.3861 23.3764 81.4839 23.3414C81.5818 23.3063 81.6861 23.2932 81.7896 23.3029C82.616 23.3029 83.4388 23.3029 84.2651 23.3029C84.518 23.3029 84.6213 23.3566 84.5964 23.6319C84.4575 25.2233 84.3328 26.8183 84.1975 28.4097C84.1975 28.5206 84.2366 28.7101 84.0407 28.6994C83.8448 28.6886 83.9196 28.5063 83.9054 28.3954C83.8484 27.884 83.7843 27.3762 83.7593 26.8612C83.7593 26.6109 83.656 26.5501 83.4245 26.5537C82.7691 26.5537 82.1137 26.5286 81.4619 26.5537C81.063 26.5787 80.9739 26.4356 81.006 26.0745C81.038 25.7133 81.006 25.445 81.006 25.1339" fill="#4493F2"/>
<path d="M97.1144 24.73L96.4428 27.7658H96.3163C96.3163 26.8996 96.3163 26.0373 96.3163 25.1711C96.3163 24.6578 96.3163 24.1445 96.3 23.6352C96.3 23.3905 96.3487 23.2983 96.5596 23.3023C97.1566 23.3023 97.7535 23.3023 98.3505 23.3023C98.4356 23.2936 98.5211 23.3075 98.6015 23.3429C98.6819 23.3784 98.7552 23.4346 98.8166 23.5078C98.878 23.5811 98.9261 23.6697 98.9576 23.7677C98.9891 23.8657 99.0034 23.9709 98.9994 24.0763C98.9994 25.1992 98.9994 26.3221 98.9994 27.441C98.9994 27.6695 98.9313 27.7538 98.7496 27.7578C98.3862 27.7578 98.0228 27.7578 97.6627 27.7979C97.4031 27.8179 97.3383 27.6816 97.3188 27.3968C97.2896 26.5106 97.2377 25.6243 97.1955 24.738H97.1047" fill="#4493F2"/>
<path d="M82.5834 28.6927C82.2955 28.6927 82.0075 28.6927 81.7195 28.6927C81.5417 28.6957 81.3694 28.6341 81.2388 28.5208C81.1082 28.4074 81.0292 28.2511 81.0185 28.0844C80.9768 27.7607 81.0185 27.4299 81.0185 27.1027C81.0185 26.9568 81.0754 26.8999 81.2307 26.8999C81.9279 26.8999 82.6251 26.8999 83.3223 26.8999C83.5459 26.8999 83.5573 27.0137 83.5686 27.1702C83.6027 27.5971 83.6368 28.0204 83.6937 28.4437C83.7202 28.6357 83.6671 28.7033 83.4663 28.6998C83.1783 28.6998 82.8904 28.6998 82.6024 28.6998" fill="#4493F2"/>
<path d="M96.7983 26.8999C96.9222 27.7601 96.9222 27.7601 97.8302 27.7335C98.0916 27.7335 98.3565 27.7534 98.6144 27.7335C99.0272 27.687 99.0444 27.9161 98.9584 28.1918C98.937 28.3324 98.8642 28.4609 98.7532 28.5541C98.6421 28.6473 98.5002 28.699 98.353 28.6999C97.7339 28.6999 97.1148 28.6999 96.4957 28.6999C96.3478 28.6999 96.2618 28.6999 96.3168 28.5006C96.4785 27.9693 96.6229 27.4346 96.7708 26.8999" fill="#4493F2"/>
<path d="M123.316 29.5327C122.969 30.5207 122.441 31.422 121.73 32.2367C121.019 33.0513 120.153 33.7187 119.13 34.2387C117.917 34.8453 116.643 35.1487 115.308 35.1487C114.476 35.1487 113.679 35.0447 112.916 34.8367C112.153 34.6113 111.443 34.2993 110.784 33.9007C110.125 33.4847 109.527 32.9907 108.99 32.4187C108.47 31.8467 108.028 31.1967 107.664 30.4687C107.369 29.862 107.144 29.238 106.988 28.5967C106.849 27.9553 106.78 27.3227 106.78 26.6987C106.78 25.9187 106.884 25.1473 107.092 24.3847C107.317 23.622 107.629 22.9113 108.028 22.2527C108.427 21.5767 108.921 20.97 109.51 20.4327C110.099 19.878 110.767 19.41 111.512 19.0287C112.76 18.422 114.051 18.1187 115.386 18.1187C116.201 18.1187 116.981 18.2313 117.726 18.4567C118.489 18.6647 119.199 18.9767 119.858 19.3927C120.517 19.7913 121.106 20.2767 121.626 20.8487C122.163 21.4207 122.614 22.0707 122.978 22.7987C123.169 23.1627 123.325 23.518 123.446 23.8647C122.822 23.8647 122.345 23.8647 122.016 23.8647C121.687 23.8473 121.444 23.8387 121.288 23.8387C121.132 23.8387 121.037 23.8387 121.002 23.8387C120.967 23.8213 120.95 23.8127 120.95 23.8127C120.43 22.738 119.667 21.8973 118.662 21.2907C117.674 20.684 116.582 20.3807 115.386 20.3807C114.363 20.3807 113.41 20.606 112.526 21.0567C111.971 21.334 111.477 21.6807 111.044 22.0967C110.628 22.4953 110.273 22.946 109.978 23.4487C109.683 23.934 109.458 24.454 109.302 25.0087C109.146 25.5633 109.068 26.1267 109.068 26.6987C109.068 27.652 109.285 28.5707 109.718 29.4547C110.238 30.5293 110.992 31.37 111.98 31.9767C112.985 32.5833 114.095 32.8867 115.308 32.8867C116.244 32.8867 117.18 32.6613 118.116 32.2107C118.723 31.916 119.26 31.5347 119.728 31.0667C120.196 30.5987 120.577 30.0873 120.872 29.5327H123.316ZM139.804 18.5347V34.9407H137.516V22.3827L127.896 34.9407H125.79V18.5347H128.078V30.8587L137.62 18.5347H139.804ZM157.437 18.5607C157.42 19.1327 157.324 19.67 157.151 20.1727C156.995 20.658 156.761 21.0913 156.449 21.4727C156.137 21.8367 155.738 22.1313 155.253 22.3567C154.785 22.5647 154.239 22.6687 153.615 22.6687C153.112 22.6687 152.627 22.6253 152.159 22.5387C151.691 22.4347 151.188 22.2873 150.651 22.0967V34.8887H148.363V21.1867C147.982 21.048 147.583 20.9353 147.167 20.8487C146.751 20.762 146.335 20.7187 145.919 20.7187C145.468 20.7187 145.052 20.7967 144.671 20.9527C144.307 21.1087 144.116 21.4553 144.099 21.9927H141.889C141.889 21.4207 141.993 20.918 142.201 20.4847C142.426 20.0513 142.721 19.696 143.085 19.4187C143.449 19.124 143.874 18.9073 144.359 18.7687C144.862 18.6127 145.399 18.5347 145.971 18.5347C146.838 18.5347 147.609 18.6387 148.285 18.8467C148.978 19.0373 149.611 19.254 150.183 19.4967C150.772 19.7393 151.336 19.9647 151.873 20.1727C152.428 20.3633 153 20.4587 153.589 20.4587C153.918 20.4587 154.187 20.424 154.395 20.3547C154.603 20.2853 154.759 20.1813 154.863 20.0427C154.984 19.8867 155.062 19.6873 155.097 19.4447C155.149 19.202 155.184 18.9073 155.201 18.5607H157.437ZM173.168 18.5347V34.9407H170.88V22.3827L161.26 34.9407H159.154V18.5347H161.442V30.8587L170.984 18.5347H173.168Z" fill="#3C3F42"/>
</svg>
