<svg width="16" height="16" viewBox="0 0 16 16" fill="none" xmlns="http://www.w3.org/2000/svg">
<circle cx="8" cy="8" r="7" stroke="#B9C2CF" stroke-width="2"/>
<path d="M11.0567 9.8619L10.0683 8.87117C9.87142 8.67465 9.5454 8.68062 9.34168 8.88488L8.84373 9.38384C8.81227 9.36647 8.7797 9.34832 8.74547 9.32906C8.43102 9.15443 8.00064 8.91508 7.54775 8.46084C7.09353 8.00564 6.8545 7.57362 6.67973 7.25826C6.66129 7.22484 6.64362 7.19263 6.62617 7.16204L6.96037 6.82758L7.12467 6.6627C7.32871 6.45815 7.33434 6.13149 7.13793 5.93439L6.14955 4.94355C5.95314 4.74674 5.62698 4.75271 5.42294 4.95726L5.14438 5.23806L5.152 5.24563C5.05859 5.36509 4.98054 5.50286 4.92246 5.65143C4.86891 5.79285 4.83558 5.9278 4.82034 6.06303C4.68983 7.14743 5.18425 8.13849 6.52604 9.48334C8.3808 11.3422 9.8755 11.2018 9.93998 11.1949C10.0804 11.1781 10.215 11.1444 10.3518 11.0912C10.4987 11.0337 10.6361 10.9555 10.7552 10.8621L10.7613 10.8676L11.0435 10.5906C11.2471 10.3861 11.253 10.0593 11.0567 9.8619Z" fill="#B9C2CF"/>
</svg>
