<svg width="18" height="18" viewBox="0 0 18 18" fill="none" xmlns="http://www.w3.org/2000/svg">
<path d="M-3.93402e-07 9C-6.10079e-07 13.957 4.02754 18 9 18C13.9725 18 18 13.957 18 9C18 4.04303 13.957 -1.76726e-07 9 -3.93402e-07C4.04303 -6.10079e-07 -1.76726e-07 4.04303 -3.93402e-07 9ZM16.7298 9C16.7298 13.2599 13.2599 16.7298 9 16.7298C4.7401 16.7298 1.27022 13.2599 1.27022 9C1.27022 4.7401 4.7401 1.27022 9 1.27022C13.2599 1.27022 16.7298 4.7401 16.7298 9Z" fill="#3C3F42"/>
<path d="M4.50736 6.92417C4.38344 7.04809 4.32148 7.203 4.32148 7.37339C4.32148 7.5283 4.38344 7.69869 4.50736 7.82262L8.59686 11.9121C8.72079 12.036 8.87569 12.098 9.04609 12.098C9.21649 12.098 9.37139 12.036 9.49531 11.9121L13.5848 7.82262C13.8327 7.57477 13.8327 7.17202 13.5848 6.92417C13.337 6.67632 12.9342 6.67632 12.6864 6.92417L9.04609 10.5644L5.40581 6.92417C5.15797 6.67632 4.75521 6.67632 4.50736 6.92417Z" fill="#3C3F42"/>
</svg>
