<svg width="32" height="26" viewBox="0 0 32 26" fill="none" xmlns="http://www.w3.org/2000/svg">
<path d="M30.803 4.38159H22.1047V6.77559H29.606V19.2245H27.7705C27.1094 19.2245 26.5735 19.7603 26.5735 20.4215V22.448L22.3605 19.4467C22.1574 19.3019 21.9148 19.2245 21.6658 19.2245H13.7257V15.6335H11.3317V20.4215C11.3317 21.0826 11.8675 21.6185 12.5287 21.6185H21.2832L27.0759 25.7453C27.2826 25.8926 27.526 25.9676 27.7706 25.9676C27.9577 25.9676 28.146 25.9237 28.3189 25.8347C28.7175 25.6292 28.9676 25.2187 28.9676 24.7706V21.6185H30.803C31.4642 21.6185 32 21.0826 32 20.4215V5.57859C32 4.91747 31.4641 4.38159 30.803 4.38159Z" fill="#3C3F42"/>
<path d="M22.1047 0H1.197C0.535875 0 0 0.535812 0 1.197V15.601C0 16.2621 0.535875 16.798 1.197 16.798H3.91019V20.8279C3.91019 21.3036 4.1915 21.7337 4.62681 21.9244C4.78125 21.9918 4.94444 22.0249 5.10681 22.0249C5.40206 22.0249 5.69337 21.916 5.91881 21.7077L11.2407 16.798H22.1047C22.7659 16.798 23.3018 16.2621 23.3018 15.601V1.197C23.3018 0.535812 22.7659 0 22.1047 0ZM20.9077 14.404H10.7731C10.4722 14.404 10.1826 14.5173 9.9615 14.7212L6.30425 18.0951V15.6009C6.30425 14.9398 5.76838 14.4039 5.10725 14.4039H2.394V2.394H20.9077V14.404H20.9077Z" fill="#3C3F42"/>
</svg>
