<svg width="40" height="40" viewBox="0 0 40 40" fill="none" xmlns="http://www.w3.org/2000/svg">
<path d="M26.5975 19.216L18.2916 13.1783C17.9868 12.9573 17.5822 12.924 17.2481 13.0958C16.9113 13.2661 16.701 13.6122 16.701 13.9862V26.0577C16.701 26.4357 16.9113 26.7805 17.2481 26.9509C17.3905 27.0227 17.5462 27.0587 17.7033 27.0587C17.9083 27.0587 18.1159 26.9935 18.2916 26.8643L26.5975 20.8319C26.8597 20.6389 27.0128 20.3408 27.0128 20.024C27.0141 19.7019 26.857 19.405 26.5975 19.216Z" fill="white"/>
<path d="M20.0007 0C8.95278 0 0 8.95278 0 20.0007C0 31.0446 8.95278 39.9947 20.0007 39.9947C31.0459 39.9947 40 31.0432 40 20.0007C40.0013 8.95278 31.0459 0 20.0007 0ZM20.0007 36.6577C10.8003 36.6577 3.34099 29.2024 3.34099 20.0007C3.34099 10.803 10.8003 3.33832 20.0007 3.33832C29.1997 3.33832 36.6577 10.8016 36.6577 20.0007C36.659 29.2024 29.1997 36.6577 20.0007 36.6577Z" fill="white"/>
</svg>
