<svg width="20" height="32" viewBox="0 0 20 32" fill="none" xmlns="http://www.w3.org/2000/svg">
<path d="M5.35844 0.0116906C7.02818 0.0116906 8.69872 -0.0191847 10.3676 0.0194172C12.7599 0.0771428 14.8645 0.934576 16.6529 2.54354C18.4805 4.18647 19.5904 6.24684 19.9041 8.70242C20.3071 11.8533 19.4399 14.6282 17.3082 16.9668C15.8022 18.6178 13.0674 20.1908 10.4797 20.1908C10.4476 20.1908 10.4476 20.2228 10.1921 19.9353C9.16972 18.9129 8.21138 17.9865 7.22096 16.9323C5.65552 15.3348 4.85683 14.5042 3.29141 12.9069C2.20519 11.7887 1.08702 10.7024 0.000801959 9.58428C0.000801959 9.55233 0.000801959 8.26007 0.000801959 8.21053C0.000801959 8.17504 -0.00100245 8.09361 0.000801959 8.0508C0.00323868 5.41603 0.00323868 2.6657 0.000801959 0.0319401V5.50365e-07C1.75194 0.0045347 3.60749 0.011074 5.35844 0.0086064V0.0116906Z" fill="#DFE4E9"/>
<path d="M19.9998 31.9469C19.9039 31.9447 19.8937 31.9438 19.8474 31.9438C17.3268 31.9438 14.8064 31.9446 12.2859 31.9461C12.2452 31.9486 12.1406 31.9469 12.1406 31.9469C12.0671 31.8611 12.0945 31.8901 12.0671 31.8611C10.2412 30.0359 8.41351 28.2124 6.58381 26.3906L6.29465 26.1012C4.69815 24.5061 3.69271 23.5061 2.11189 21.9317C1.06776 20.892 0.100115 19.9289 0.000579834 19.8287V11.7241L19.9998 31.9469Z" fill="#DFE4E9"/>
<path d="M0.000579834 21.7886L10.0322 31.9478C6.76914 31.9478 3.26341 31.9452 0.000579834 31.9478C0.000579834 31.9478 0.000579834 31.9159 0.000579834 31.7113C0.00485181 28.3924 0.00252304 25.1062 0.000579834 21.7886Z" fill="#BBC5CF"/>
</svg>
