<svg width="42" height="36" viewBox="0 0 42 36" fill="none" xmlns="http://www.w3.org/2000/svg">
<path opacity="0.5" d="M15.8445 35.7824C24.5952 35.7824 31.689 34.0229 31.689 31.8525C31.689 29.682 24.5952 27.9225 15.8445 27.9225C7.09383 27.9225 0 29.682 0 31.8525C0 34.0229 7.09383 35.7824 15.8445 35.7824Z" fill="#B8CBCD"/>
<path d="M35.8598 31.9273C33.8658 31.9273 31.9963 31.1546 30.5922 29.7422C29.188 28.338 28.407 26.4603 28.407 24.4745C28.407 22.4804 29.1797 20.611 30.5922 19.2068C30.5922 19.2068 30.5922 19.2068 30.6005 19.1985L38.4106 11.5214C39.4408 10.4911 40.0058 9.1202 40.0058 7.66619C40.0058 6.21219 39.4408 4.84127 38.4106 3.811C36.2836 1.684 32.8189 1.684 30.6919 3.811L23.6379 10.865C23.2474 11.2555 22.6159 11.2555 22.2254 10.865C21.8349 10.4745 21.8349 9.84305 22.2254 9.45255L29.2794 2.39854C32.1874 -0.509474 36.915 -0.509474 39.8147 2.39854C41.2189 3.80269 41.9999 5.68044 41.9999 7.66619C41.9999 9.65195 41.2272 11.5297 39.8147 12.9338C39.8147 12.9338 39.8147 12.9339 39.8064 12.9422L31.9963 20.6193C30.9661 21.6496 30.4011 23.0205 30.4011 24.4745C30.4011 25.9285 30.9661 27.2994 31.9963 28.3297C34.1233 30.4567 37.588 30.4567 39.715 28.3297C40.1055 27.9392 40.737 27.9392 41.1275 28.3297C41.518 28.7202 41.518 29.3517 41.1275 29.7422C39.7233 31.1546 37.8539 31.9273 35.8598 31.9273Z" fill="#324654"/>
<path d="M6.70509 26.8259C2.92468 23.0454 2.92468 16.8555 6.70509 13.0751L14.4072 5.37303C18.1876 1.59262 24.3775 1.59262 28.1579 5.37303C31.9383 9.15345 31.9383 15.3434 28.1579 19.1238L20.4475 26.8259C16.6671 30.6063 10.4855 30.6063 6.70509 26.8259Z" fill="#B9E3ED"/>
<path d="M12.4131 29.6009C11.5323 29.1522 10.7015 28.5623 9.96202 27.8228C6.18161 24.0424 6.18161 17.8525 9.96202 14.0721L17.6641 6.37003C19.8243 4.20979 22.7739 3.28754 25.6071 3.59496C21.9513 1.74214 17.3484 2.33205 14.3074 5.373L6.60535 13.0751C2.82493 16.8638 2.82493 23.0454 6.60535 26.8258C8.22552 28.446 10.2861 29.3766 12.4131 29.6009Z" fill="white"/>
<path d="M22.6077 2.2074C23.4884 2.65606 24.3192 3.24597 25.0587 3.98544C28.8391 7.76585 28.8391 13.9558 25.0587 17.7362L17.3566 25.4383C15.1964 27.5985 12.2468 28.5208 9.4136 28.2133C13.0694 30.0745 17.6724 29.4762 20.7133 26.4353L28.4154 18.7332C32.1958 14.9528 32.1958 8.76289 28.4154 4.98247C26.7952 3.36229 24.7347 2.44004 22.6077 2.2074Z" fill="#A1D2DB"/>
<path d="M13.5762 30.6644C10.7014 30.6644 8.00941 29.551 5.99872 27.5403C1.8195 23.3611 1.8195 16.5564 5.99872 12.3771L13.7008 4.67506C15.7198 2.65607 18.4118 1.55103 21.2783 1.55103C24.153 1.55103 26.845 2.66438 28.8557 4.67506C33.0349 8.85429 33.0349 15.659 28.8557 19.8383L21.1536 27.5403C19.1429 29.551 16.451 30.6644 13.5762 30.6644ZM21.2783 3.53678C18.9435 3.53678 16.7501 4.44242 15.105 6.07922L7.40288 13.7813C4.00466 17.1795 4.00466 22.7214 7.40288 26.1196C9.03967 27.7564 11.2331 28.662 13.5762 28.662C15.9109 28.662 18.1044 27.7564 19.7495 26.1196L27.4515 18.4175C30.8498 15.0193 30.8498 9.47744 27.4515 6.07922C25.8064 4.44242 23.613 3.53678 21.2783 3.53678Z" fill="#324654"/>
<path d="M18.442 14.278L19.4407 15.2767L29.2401 5.47733L28.2414 4.47857L18.442 14.278Z" fill="#324654"/>
<path d="M11.7849 7.59904L26.1198 21.934L27.1185 20.9352L12.7836 6.60029L11.7849 7.59904Z" fill="#324654"/>
<path d="M25.1232 6.75813L21.2751 10.6062L23.1081 12.4392L26.9562 8.59113L25.1232 6.75813Z" fill="white"/>
<path d="M23.1063 13.1416C22.9235 13.1416 22.7407 13.0751 22.6078 12.9338L20.7716 11.106C20.4974 10.8318 20.4974 10.3831 20.7716 10.1089L24.6185 6.26203C24.8927 5.98785 25.3413 5.98785 25.6155 6.26203L27.4517 8.09824C27.7259 8.37242 27.7259 8.82108 27.4517 9.09527L23.6048 12.9422C23.4719 13.0751 23.2891 13.1416 23.1063 13.1416ZM22.2755 10.6074L23.1063 11.4383L25.9562 8.58844L25.1253 7.75758L22.2755 10.6074Z" fill="#324654"/>
</svg>
