<svg width="36" height="42" viewBox="0 0 36 42" fill="none" xmlns="http://www.w3.org/2000/svg">
<path d="M18.0002 42C27.6145 42 35.4085 40.0684 35.4085 37.6858C35.4085 35.3031 27.6145 33.3716 18.0002 33.3716C8.38579 33.3716 0.591797 35.3031 0.591797 37.6858C0.591797 40.0684 8.38579 42 18.0002 42Z" fill="#B8CBCD"/>
<path d="M24.6944 6.2085H30.9029V38.3468H4.97314V6.2085H11.1817" fill="#F7BB83"/>
<path d="M30.9029 39.4425H4.97319C4.36804 39.4425 3.87756 38.952 3.87756 38.3468V6.20854C3.87756 5.60339 4.36804 5.11292 4.97319 5.11292H11.1817C11.7869 5.11292 12.2773 5.60339 12.2773 6.20854C12.2773 6.81369 11.7869 7.30416 11.1817 7.30416H6.06881V37.2512H29.8073V7.30416H24.6944C24.0893 7.30416 23.5988 6.81369 23.5988 6.20854C23.5988 5.60339 24.0893 5.11292 24.6944 5.11292H30.9029C31.5081 5.11292 31.9986 5.60339 31.9986 6.20854V38.3468C31.9986 38.952 31.5077 39.4425 30.9029 39.4425Z" fill="#6E4123"/>
<path d="M20.1775 35.06H8.26001V9.13025H27.616V28.117L20.1775 35.06Z" fill="white"/>
<path d="M20.1775 35.7904H8.26002C7.85646 35.7904 7.5296 35.4631 7.5296 35.06V9.1302C7.5296 8.72701 7.85646 8.39978 8.26002 8.39978H27.616C28.0192 8.39978 28.3464 8.72701 28.3464 9.1302V28.117C28.3464 28.3197 28.2624 28.5129 28.1145 28.6509L20.676 35.5939C20.5405 35.7203 20.3623 35.7904 20.1775 35.7904ZM8.99043 34.3295H19.8893L26.8856 27.7996V9.86061H8.99043V34.3295Z" fill="#6E4123"/>
<path d="M19.9467 34.3296V27.3906H26.8856" fill="white"/>
<path d="M19.9467 35.0599C19.5431 35.0599 19.2162 34.7327 19.2162 34.3295V27.3906C19.2162 26.9874 19.5431 26.6602 19.9467 26.6602H26.8856C27.2888 26.6602 27.616 26.9874 27.616 27.3906C27.616 27.7938 27.2888 28.121 26.8856 28.121H20.6771V34.3295C20.6771 34.7327 20.3499 35.0599 19.9467 35.0599Z" fill="#6E4123"/>
<path d="M11.5469 8.39973V4.38245H24.3292V8.39973" fill="white"/>
<path d="M24.3292 9.4954C23.724 9.4954 23.2336 9.00492 23.2336 8.39978V5.47811H12.6425V8.39978C12.6425 9.00492 12.1521 9.4954 11.5469 9.4954C10.9418 9.4954 10.4513 9.00492 10.4513 8.39978V4.38249C10.4513 3.77734 10.9418 3.28687 11.5469 3.28687H24.3292C24.9343 3.28687 25.4248 3.77734 25.4248 4.38249V8.39978C25.4248 9.00492 24.934 9.4954 24.3292 9.4954Z" fill="#6E4123"/>
<path d="M24.0013 9.86062H11.8746C11.4714 9.86062 11.1442 9.53339 11.1442 9.1302V5.84333C11.1442 5.44014 11.4714 5.11292 11.8746 5.11292C12.2781 5.11292 12.605 5.44014 12.605 5.84333V8.39979H23.2709V5.84333C23.2709 5.44014 23.5981 5.11292 24.0013 5.11292C24.4049 5.11292 24.7317 5.44014 24.7317 5.84333V9.1302C24.7317 9.53339 24.4049 9.86062 24.0013 9.86062Z" fill="#6E4123"/>
<path d="M21.0423 5.29551C20.4372 5.29551 19.9467 4.80504 19.9467 4.19989C19.9467 3.09258 19.0457 2.19125 17.9381 2.19125C16.8304 2.19125 15.9294 3.09258 15.9294 4.19989C15.9294 4.80504 15.4389 5.29551 14.8338 5.29551C14.2286 5.29551 13.7382 4.80504 13.7382 4.19989C13.7382 1.88411 15.6223 0 17.9381 0C20.2538 0 22.138 1.88411 22.138 4.19989C22.138 4.80504 21.6471 5.29551 21.0423 5.29551Z" fill="#6E4123"/>
<path d="M18.8511 18.9908C18.8511 19.5934 18.3581 20.0864 17.7555 20.0864C17.1529 20.0864 16.6599 19.5934 16.6599 18.9908V14.6083C16.6599 14.0057 17.1529 13.5127 17.7555 13.5127C18.3581 13.5127 18.8511 14.0057 18.8511 14.6083V18.9908Z" fill="#6E4123"/>
<path d="M15.5642 17.8952C14.9616 17.8952 14.4686 17.4022 14.4686 16.7996C14.4686 16.197 14.9616 15.704 15.5642 15.704H19.9467C20.5493 15.704 21.0423 16.197 21.0423 16.7996C21.0423 17.4022 20.5493 17.8952 19.9467 17.8952H15.5642Z" fill="#6E4123"/>
<path d="M18.8511 24.8341H11.9121C11.5086 24.8341 11.1817 24.5069 11.1817 24.1037C11.1817 23.7005 11.5086 23.3733 11.9121 23.3733H18.8511C19.2542 23.3733 19.5815 23.7005 19.5815 24.1037C19.5815 24.5069 19.2542 24.8341 18.8511 24.8341Z" fill="#6E4123"/>
<path d="M23.5988 24.8341H21.7727C21.3692 24.8341 21.0423 24.5069 21.0423 24.1037C21.0423 23.7005 21.3692 23.3733 21.7727 23.3733H23.5988C24.0019 23.3733 24.3292 23.7005 24.3292 24.1037C24.3292 24.5069 24.0019 24.8341 23.5988 24.8341Z" fill="#6E4123"/>
<path d="M16.5378 28.121H11.9121C11.5086 28.121 11.1817 27.7938 11.1817 27.3906C11.1817 26.9874 11.5086 26.6602 11.9121 26.6602H16.5378C16.941 26.6602 17.2683 26.9874 17.2683 27.3906C17.2683 27.7938 16.9414 28.121 16.5378 28.121Z" fill="#6E4123"/>
</svg>
