<svg width="34" height="42" viewBox="0 0 34 42" fill="none" xmlns="http://www.w3.org/2000/svg">
<path d="M20.0541 31.7835C20.0541 33.6644 18.5296 35.1889 16.6487 35.1889C14.7678 35.1889 13.2433 33.6644 13.2433 31.7835V22.5304C13.2433 20.6495 14.7678 19.125 16.6487 19.125C18.5296 19.125 20.0541 20.6495 20.0541 22.5304V31.7835Z" fill="#F6E89A"/>
<path d="M16.6487 36.324C14.145 36.324 12.1082 34.2872 12.1082 31.7835V22.5304C12.1082 20.0267 14.145 17.9899 16.6487 17.9899C19.1524 17.9899 21.1892 20.0267 21.1892 22.5304V31.7835C21.1892 34.2872 19.152 36.324 16.6487 36.324ZM16.6487 20.2601C15.3967 20.2601 14.3785 21.0721 14.3785 22.3242V31.7835C14.3785 33.0356 15.3967 34.0538 16.6487 34.0538C17.9007 34.0538 18.919 33.0356 18.919 31.7835V22.5304C18.919 21.2783 17.9004 20.2601 16.6487 20.2601Z" fill="#8D4520"/>
<path d="M30.2339 14.7532C29.7458 7.56898 23.7675 1.89185 16.4595 1.89185C9.15159 1.89185 3.17327 7.56898 2.68478 14.7532C2.66208 14.7551 2.64884 15.7025 2.64884 15.7025V17.8089V29.5132C12.1082 29.5132 13.6217 23.4592 13.6217 23.4592C14.8094 20.2525 14.17 18.2021 12.734 16.8971C15.4262 16.0056 16.6843 16.3344 18.919 13.6215C20.0518 14.7543 22.7825 14.0627 24.0679 15.1021C20.5694 15.877 17.2685 17.9819 19.2973 23.4592C19.2973 23.4592 20.8108 29.5132 30.2702 29.5132V17.8089V15.7025C30.2702 15.7025 30.257 14.7551 30.2339 14.7532Z" fill="#F7BB83"/>
<path d="M31.4053 30.6483H30.2702C20.4885 30.6483 18.4377 24.583 18.2156 23.8069C17.3116 21.3396 17.3181 19.2358 18.2345 17.5539C18.6991 16.7022 19.3817 15.9814 20.2766 15.3957C19.8868 15.3294 19.5005 15.236 19.1388 15.088C17.5209 16.7919 16.2552 17.1173 14.7008 17.5172C14.6887 17.5202 14.677 17.5233 14.6649 17.5263C15.4288 18.913 15.7558 20.9332 14.7031 23.8069C14.4814 24.583 12.4306 30.6483 2.64884 30.6483H1.51372V15.7025C1.51901 15.326 1.52393 14.9776 1.56783 14.6771L1.55269 14.6764C2.08317 6.87087 8.63095 0.756714 16.4595 0.756714C24.2881 0.756714 30.8363 6.87087 31.3664 14.6764L31.3516 14.6771C31.3947 14.9742 31.3997 15.3173 31.405 15.6866L31.4053 30.6483ZM18.8376 11.9347L19.7215 12.8189C20.0174 13.1144 20.8752 13.2003 21.6323 13.2756C22.6921 13.3812 23.8935 13.5011 24.7819 14.2193L26.614 15.7006L24.3135 16.2103C22.2297 16.6719 20.8551 17.4896 20.2278 18.6406C19.6333 19.7315 19.6784 21.22 20.3617 23.0649L20.3984 23.1838C20.4506 23.3771 21.7594 27.952 29.1351 28.3781V15.5133C29.1324 15.3336 29.1404 15.2996 29.1351 15.135V14.7566C28.6856 8.13767 23.0989 3.02696 16.4595 3.02696C9.82056 3.02696 4.23386 8.13805 3.78397 14.7566V15.135C3.77905 15.3014 3.78662 15.7018 3.78397 15.8917V28.3781C11.2489 27.9437 12.5085 23.2329 12.5206 23.1834L12.5573 23.0646C13.4514 20.6509 13.2596 18.9081 11.9709 17.7367L10.533 16.4301L12.3772 15.8194C13.0436 15.5988 13.6236 15.4494 14.1355 15.3181C15.7028 14.9147 16.5659 14.693 18.0426 12.8995L18.8376 11.9347Z" fill="#8D4520"/>
<path d="M6.43259 16.0934V19.7299C6.43259 25.2674 10.9216 29.7569 16.4595 29.7569C21.9974 29.7569 26.4865 25.2674 26.4865 19.7299V14.8549C26.4865 14.8549 24.5946 10.2161 16.2703 10.2161C7.94609 10.2161 6.43259 16.0934 6.43259 16.0934Z" fill="#F6E89A"/>
<path d="M16.4595 30.514C10.5134 30.514 5.67584 25.6765 5.67584 19.7303V16.0938C5.67584 16.0302 5.68378 15.9666 5.69968 15.905C5.71632 15.8403 7.46139 9.45935 16.2703 9.45935C25.0029 9.45935 27.1021 14.3604 27.1872 14.5693C27.2243 14.6597 27.2432 14.757 27.2432 14.855V19.7303C27.2432 25.6761 22.4057 30.514 16.4595 30.514ZM7.18934 16.2031V19.73C7.18934 24.8418 11.3481 29.0001 16.4595 29.0001C21.571 29.0001 25.7297 24.8418 25.7297 19.73V15.0237C25.3752 14.3358 23.2824 10.9729 16.2703 10.9729C9.13873 10.9729 7.40274 15.5413 7.18934 16.2031Z" fill="#8D4520"/>
<path d="M11.3515 20.8107C11.9784 20.8107 12.4866 20.3024 12.4866 19.6755C12.4866 19.0486 11.9784 18.5404 11.3515 18.5404C10.7246 18.5404 10.2163 19.0486 10.2163 19.6755C10.2163 20.3024 10.7246 20.8107 11.3515 20.8107Z" fill="#8D4520"/>
<path d="M21.946 20.8107C22.5729 20.8107 23.0811 20.3024 23.0811 19.6755C23.0811 19.0486 22.5729 18.5404 21.946 18.5404C21.3191 18.5404 20.8108 19.0486 20.8108 19.6755C20.8108 20.3024 21.3191 20.8107 21.946 20.8107Z" fill="#8D4520"/>
<path d="M13.6217 23.4592C13.6217 25.0268 14.8919 26.4862 16.4595 26.4862C18.0271 26.4862 19.2974 25.0268 19.2974 23.4592H13.6217Z" fill="#8D4520"/>
<path d="M1.13491 42C1.00059 42 0.863997 41.9761 0.731187 41.9254C0.145463 41.7022 -0.148534 41.0465 0.0747068 40.4604C3.35484 31.8493 12.885 32.1554 12.9845 32.1599C13.6107 32.1864 14.0965 32.7162 14.07 33.3424C14.0432 33.9682 13.5093 34.4624 12.8899 34.4279C12.5611 34.4177 4.88612 34.2066 2.19588 41.2686C2.02334 41.7215 1.59237 42 1.13491 42Z" fill="#8D4520"/>
<path d="M32.162 42C31.7046 42 31.2736 41.7215 31.1011 41.2686C28.3972 34.171 20.6795 34.4226 20.5996 34.4249C19.9821 34.4597 19.4437 33.9663 19.4165 33.3401C19.3892 32.7139 19.875 32.1838 20.5013 32.1569C20.5936 32.1527 29.9421 31.8489 33.2226 40.46C33.4458 41.0461 33.1518 41.7018 32.5661 41.9251C32.4329 41.9761 32.2963 42 32.162 42Z" fill="#8D4520"/>
<path d="M26.4865 1.13513H6.43259V16.0934C6.43259 16.0934 7.18934 10.2161 16.2703 10.2161C25.3513 10.2161 26.4865 15.7026 26.4865 15.7026V1.13513Z" fill="white"/>
<path d="M6.43297 16.8502C6.4167 16.8502 6.40043 16.8498 6.38416 16.8487C5.98573 16.8234 5.67584 16.4927 5.67584 16.0935V1.13517C5.67584 0.717442 6.01449 0.378418 6.43259 0.378418H26.4865C26.9042 0.378418 27.2432 0.717442 27.2432 1.13517V15.7026C27.2432 16.0904 26.9496 16.4158 26.5637 16.4552C26.1785 16.4998 25.8243 16.2357 25.7456 15.8558C25.7021 15.6621 24.5624 10.9729 16.2703 10.9729C7.95101 10.9729 7.18972 16.1377 7.18291 16.1903C7.1341 16.5698 6.81059 16.8502 6.43297 16.8502ZM7.18934 1.89192V12.8648C8.58744 11.1719 11.2486 9.45942 16.2703 9.45942C21.518 9.45942 24.2885 11.2098 25.7297 12.8349V1.89192H7.18934Z" fill="#8D4520"/>
<path d="M17.0271 6.81077C17.0271 7.43509 16.6866 7.94589 16.2703 7.94589C15.8541 7.94589 15.5136 7.43509 15.5136 6.81077V4.54052C15.5136 3.9162 15.8541 3.4054 16.2703 3.4054C16.6866 3.4054 17.0271 3.9162 17.0271 4.54052V6.81077Z" fill="#8D4520"/>
<path d="M15.1352 6.43232C14.5109 6.43232 14.0001 6.09179 14.0001 5.67557C14.0001 5.25936 14.5109 4.91882 15.1352 4.91882H17.4055C18.0298 4.91882 18.5406 5.25936 18.5406 5.67557C18.5406 6.09179 18.0298 6.43232 17.4055 6.43232H15.1352Z" fill="#8D4520"/>
<path d="M6.05421 8.32425C5.42725 8.32425 4.91909 7.81609 4.91909 7.18912V1.13512C4.91909 0.508158 5.42725 0 6.05421 0H26.8648C27.4918 0 28 0.508158 28 1.13512V6.43237C28 7.05934 27.4918 7.5675 26.8648 7.5675C26.2379 7.5675 25.7297 7.05934 25.7297 6.43237V2.27025H7.18934V7.18912C7.18934 7.81609 6.6808 8.32425 6.05421 8.32425Z" fill="#8D4520"/>
</svg>
