<svg width="38" height="42" viewBox="0 0 38 42" fill="none" xmlns="http://www.w3.org/2000/svg">
<path opacity="0.5" d="M16.2844 42C24.916 42 31.9132 40.2645 31.9132 38.1235C31.9132 35.9826 24.916 34.2471 16.2844 34.2471C7.65289 34.2471 0.65564 35.9826 0.65564 38.1235C0.65564 40.2645 7.65289 42 16.2844 42Z" fill="#B8CBCD"/>
<path d="M24.3817 24.1174C23.4883 23.3798 22.1771 23.5027 21.4395 24.396L19.743 26.4449C20.038 25.6417 19.8086 24.6992 19.112 24.1174C18.4317 23.5519 17.4892 23.4945 16.7599 23.9043C17.3417 23.0274 17.1778 21.8308 16.3501 21.1424C15.4568 20.4048 14.1455 20.5277 13.4079 21.4211L4.16338 32.5669C3.42579 33.4602 3.54872 34.7715 4.44203 35.5091C5.12226 36.0746 6.06474 36.132 6.79414 35.7222C6.21226 36.5991 6.37617 37.7956 7.20391 38.4841C8.09722 39.2217 9.4085 39.0987 10.1461 38.2054L11.8426 36.1565C11.5475 36.9597 11.777 37.9022 12.4736 38.4759C13.3669 39.2135 14.6782 39.0905 15.4158 38.1972L24.6603 27.0514C25.3979 26.1744 25.275 24.855 24.3817 24.1174Z" fill="#EBBC96"/>
<path d="M8.53992 39.9511C7.82692 39.9511 7.1303 39.6971 6.5812 39.2463C5.87639 38.6562 5.4912 37.8203 5.46662 36.9598C4.86015 36.9024 4.28647 36.6565 3.81932 36.2714C3.18827 35.7468 2.79489 35.0093 2.72113 34.1979C2.64737 33.3865 2.89323 32.5834 3.41774 31.9523L12.6623 20.8065C13.2441 20.1017 14.1129 19.6919 15.0308 19.6919C15.7438 19.6919 16.4404 19.946 16.9895 20.3967C17.6943 20.9868 18.0795 21.8227 18.1041 22.6832C18.7105 22.7406 19.2842 22.9865 19.7514 23.3717C20.0136 23.5929 20.2349 23.847 20.407 24.1257L20.6938 23.7814C21.2757 23.0684 22.1444 22.6669 23.0623 22.6669C23.7753 22.6669 24.472 22.9209 25.0211 23.3717C25.6603 23.8962 26.0537 24.642 26.1274 25.4615C26.2012 26.2811 25.9553 27.0678 25.4308 27.6989L16.1699 38.8284C15.588 39.5332 14.7193 39.9429 13.8014 39.9429C13.0884 39.9429 12.3918 39.6889 11.8427 39.2381C11.5805 39.025 11.3592 38.771 11.1871 38.4841L10.9002 38.8365C10.3183 39.5414 9.45782 39.9511 8.53992 39.9511ZM6.79429 34.7388C7.06474 34.7388 7.32699 34.8453 7.51549 35.0502C7.82692 35.3862 7.86789 35.8862 7.61383 36.2632C7.30241 36.7303 7.39256 37.3614 7.83511 37.722C8.08917 37.935 8.35962 37.976 8.53992 37.976C8.86774 37.976 9.17917 37.8285 9.39226 37.5744L11.0887 35.5256C11.392 35.1568 11.9247 35.0584 12.3344 35.2961C12.7524 35.5338 12.9327 36.0419 12.7688 36.4844C12.6131 36.9188 12.7442 37.4105 13.1048 37.7056C13.3589 37.9186 13.6293 37.9596 13.8096 37.9596C14.1374 37.9596 14.4489 37.8121 14.662 37.5581L23.9065 26.4122C24.095 26.1909 24.1851 25.9041 24.1605 25.6172C24.1359 25.3222 23.9884 25.0517 23.7589 24.8632C23.5049 24.6502 23.2344 24.6092 23.0541 24.6092C22.7263 24.6092 22.4149 24.7567 22.2018 25.0108L20.5053 27.0596C20.2021 27.4284 19.6694 27.5268 19.2596 27.2891C18.8417 27.0514 18.6614 26.5433 18.8253 26.1008C18.9892 25.6664 18.8499 25.1665 18.4893 24.8632C18.2434 24.6584 17.9729 24.6092 17.7926 24.6092C17.6041 24.6092 17.4156 24.6584 17.2517 24.7485C16.8583 24.9698 16.3584 24.896 16.047 24.56C15.7356 24.224 15.6946 23.7241 15.9486 23.3471C16.2601 22.8799 16.1699 22.2489 15.7274 21.8883C15.4733 21.6752 15.2029 21.6342 15.0226 21.6342C14.6947 21.6342 14.3833 21.7817 14.1702 22.0358L4.91752 33.1981C4.72902 33.4275 4.63887 33.7144 4.66346 34.0094C4.68804 34.3044 4.83556 34.5667 5.06504 34.7552C5.3191 34.9683 5.58955 35.0093 5.76985 35.0093C5.95835 35.0093 6.14684 34.9601 6.31075 34.8699C6.46647 34.7798 6.63038 34.7388 6.79429 34.7388Z" fill="#4F3625"/>
<path d="M30.815 33.1407C30.815 33.8619 30.225 34.452 29.5038 34.452H2.29474C1.57353 34.452 0.983459 33.8619 0.983459 33.1407V16.4219C0.983459 15.7007 1.57353 15.1106 2.29474 15.1106H29.5038C30.225 15.1106 30.815 15.7007 30.815 16.4219V33.1407Z" fill="#B2EDA6"/>
<path d="M29.5038 35.4355H2.29474C1.03263 35.4355 0 34.4028 0 33.1407V16.4219C0 15.1598 1.03263 14.1272 2.29474 14.1272H29.5038C30.7659 14.1272 31.7985 15.1598 31.7985 16.4219V33.1407C31.7985 34.4028 30.7659 35.4355 29.5038 35.4355ZM2.29474 16.0941C2.11444 16.0941 1.96692 16.2416 1.96692 16.4219V33.1407C1.96692 33.321 2.11444 33.4686 2.29474 33.4686H29.5038C29.6841 33.4686 29.8316 33.321 29.8316 33.1407V16.4219C29.8316 16.2416 29.6841 16.0941 29.5038 16.0941H2.29474Z" fill="#3C663E"/>
<path d="M31.0199 18.0856H1.08995V21.9456H31.0199V18.0856Z" fill="#3C663E"/>
<path d="M28.1271 23.5765H15.2519V26.7974H28.1271V23.5765Z" fill="#E7FFE1"/>
<path d="M28.1271 27.453H15.2519C14.8913 27.453 14.5963 27.158 14.5963 26.7974V23.5765C14.5963 23.2159 14.8913 22.9209 15.2519 22.9209H28.1271C28.4877 22.9209 28.7827 23.2159 28.7827 23.5765V26.7974C28.7827 27.158 28.4877 27.453 28.1271 27.453ZM15.9076 26.1417H27.4714V24.2322H15.9076V26.1417Z" fill="#3C663E"/>
<path d="M22.1196 13.5698C22.1196 13.5698 20.292 14.7172 17.8252 15.5613C15.6042 16.3235 12.9325 16.7989 12.9325 16.7989C12.9325 16.7989 12.8423 20.3639 12.4817 22.0686C12.1211 23.7732 8.9167 24.6337 7.93324 22.1915C6.94978 19.7492 6.69572 15.9711 7.38414 13.7501C8.07256 11.5292 10.3837 9.96381 12.2277 8.96396C13.0472 8.52141 13.6373 8.26735 14.5224 8.00509C14.5224 8.00509 21.4558 1.2602 21.5869 1.09629C22.9146 -0.583784 27.4057 0.752082 31.6018 4.07945C35.8061 7.40682 38.1254 11.4718 36.7978 13.1519C36.7076 13.2666 33.1754 15.8646 31.4789 18.0036" fill="#EBBC96"/>
<path d="M22.1196 13.5698C22.1196 13.5698 20.292 14.7172 17.8252 15.5613C15.6042 16.3235 12.9325 16.7989 12.9325 16.7989C12.9325 16.7989 12.8423 20.3639 12.4817 22.0686C12.1211 23.7732 8.9167 24.6337 7.93324 22.1915C6.94978 19.7492 6.69572 15.9711 7.38414 13.7501C8.07256 11.5292 10.3837 9.96381 12.2277 8.96396C13.0472 8.52141 13.6373 8.26735 14.5224 8.00509C14.5224 8.00509 21.4558 1.2602 21.5869 1.09629C22.9146 -0.583784 27.4057 0.752082 31.6018 4.07945C35.8061 7.40682 38.1254 11.4718 36.7978 13.1519C36.7076 13.2666 33.1754 15.8646 31.4789 18.0036" fill="#EBBC96"/>
<path d="M31.5938 4.07127C27.3977 0.743903 22.9066 -0.591962 21.5789 1.08811C21.5133 1.17826 18.8498 2.62887 17.2763 4.57939C18.145 4.62856 19.0219 4.69413 19.8906 4.71872C21.5707 4.77608 23.1279 4.72691 24.7096 5.38255C27.2912 6.45616 29.1925 8.72631 30.7251 10.9883C31.7659 12.5372 32.733 14.3812 32.8313 16.2744C34.2737 14.455 36.7242 13.2256 36.7897 13.1437C38.1256 11.4636 35.7981 7.39864 31.5938 4.07127Z" fill="white"/>
<path opacity="0.2" d="M10.4657 24.6337C10.4657 24.6337 13.3177 24.4944 15.1289 21.9128C16.3091 20.2245 16.1697 19.0034 16.1697 19.0034C16.1697 19.0034 17.8908 18.8969 20.4642 17.5118C22.7097 16.3071 23.8079 14.0287 23.8079 14.0287L20.3576 13.7009L13.0145 16.2087L12.5473 21.6506L10.4657 24.6337Z" fill="#1E3A1E"/>
<path d="M28.1762 6.49715C24.6194 3.57955 19.1284 3.63692 19.1284 3.63692L15.7191 7.96414L15.6617 8.05429L15.7273 8.09527C19.0546 7.29211 22.7016 7.497 25.7995 9.48031C28.6024 11.2751 30.5365 13.7256 31.4052 16.6186C32.2576 15.5859 33.364 14.3156 33.364 14.3156C33.364 14.3156 32.5526 10.0786 28.1762 6.49715Z" fill="#D6D0CC"/>
<path d="M31.774 18.8641C31.4544 18.8641 31.1758 18.6346 31.1266 18.315C30.5857 14.9385 28.6188 12.0782 25.4471 10.0458C22.6852 8.28374 19.153 7.84938 15.4814 8.84103C15.129 8.93118 14.7684 8.72629 14.6782 8.38208C14.5881 8.02968 14.793 7.66908 15.1372 7.57892C19.1694 6.49712 23.0786 6.98065 26.1519 8.94757C29.6514 11.1849 31.8232 14.3566 32.4215 18.1183C32.4789 18.4789 32.233 18.8149 31.8806 18.8723C31.8396 18.8641 31.8068 18.8641 31.774 18.8641Z" fill="#4F3625"/>
<path d="M10.1051 24.6911C8.72825 24.6911 7.5645 23.8961 7.02359 22.5603C5.94998 19.8885 5.69592 15.8891 6.44991 13.4633C7.07277 11.4554 8.81021 9.70973 11.7606 8.10342C12.5965 7.65267 13.2112 7.39041 14.0143 7.13635C16.4074 4.81703 19.8905 1.43229 20.2265 1.07988C20.6937 0.498005 21.4067 0.137403 22.2918 0.030862C24.6193 -0.239589 28.2745 1.28477 31.6019 3.92372C33.7327 5.6038 35.4783 7.53793 36.5192 9.35733C37.7157 11.439 37.8714 13.2256 36.9617 14.373C36.8634 14.4959 36.7978 14.5451 36.4536 14.8073C35.6586 15.3974 33.5606 16.9709 32.2657 18.61C31.9297 19.0362 31.3068 19.11 30.8807 18.7658C30.4545 18.4297 30.3807 17.8069 30.7249 17.3807C32.1837 15.5449 34.4293 13.8648 35.2734 13.2256C35.339 13.1764 35.4128 13.1191 35.4619 13.0863C35.7488 12.5945 35.5029 11.5373 34.8145 10.3326C33.8966 8.72628 32.3231 6.99703 30.3889 5.46447C27.0698 2.83372 23.9883 1.81748 22.5295 1.98958C22.1525 2.03056 21.8984 2.1453 21.7509 2.3256C21.6771 2.42394 21.2428 2.8747 15.2109 8.71808C15.0962 8.82462 14.9568 8.90658 14.8093 8.95575C14.0225 9.18522 13.4898 9.4147 12.7031 9.84086C10.2608 11.1685 8.78562 12.5864 8.33487 14.0533C7.72021 16.0367 7.95788 19.6017 8.85938 21.8391C9.1872 22.6504 9.80186 22.7733 10.2608 22.7324C10.8755 22.675 11.441 22.298 11.5311 21.88C11.8671 20.2819 11.9573 16.8234 11.9573 16.7906C11.9655 16.3235 12.3097 15.9301 12.7686 15.8482C12.7932 15.84 15.3912 15.3728 17.5138 14.6516C19.8331 13.8567 21.587 12.7667 21.6034 12.7585C22.0623 12.4716 22.6688 12.6109 22.9556 13.0699C23.2425 13.5288 23.1031 14.1353 22.6442 14.4221C22.5622 14.4713 20.6937 15.6433 18.1449 16.512C16.5959 17.0447 14.8667 17.4299 13.8914 17.6348C13.8422 18.8067 13.7193 21.0113 13.4489 22.2898C13.1784 23.5519 11.9081 24.5682 10.4247 24.6911C10.31 24.6829 10.2034 24.6911 10.1051 24.6911ZM20.2101 1.08808C20.2019 1.10447 20.1937 1.11267 20.1855 1.12086C20.1855 1.11267 20.1937 1.11267 20.1937 1.10447C20.2019 1.09628 20.2101 1.08808 20.2101 1.08808Z" fill="#4F3625"/>
<path d="M9.9412 21.2735C9.67894 21.2735 9.43308 21.1178 9.33473 20.8637C9.08067 20.2327 7.95789 20.1753 7.9497 20.1753C7.5891 20.1589 7.30226 19.8639 7.31865 19.5033C7.32684 19.1427 7.63007 18.8559 7.99068 18.8641C8.07263 18.8641 9.97398 18.9296 10.5559 20.372C10.6952 20.708 10.5313 21.0932 10.1953 21.2243C10.1051 21.2571 10.0232 21.2735 9.9412 21.2735Z" fill="#4F3625"/>
<path d="M6.56464 31.6162C7.98588 31.6162 9.13802 30.4641 9.13802 29.0429C9.13802 27.6216 7.98588 26.4695 6.56464 26.4695C5.1434 26.4695 3.99126 27.6216 3.99126 29.0429C3.99126 30.4641 5.1434 31.6162 6.56464 31.6162Z" fill="#E7FFE1"/>
<path d="M6.56464 32.2719C4.78622 32.2719 3.33562 30.8213 3.33562 29.0429C3.33562 27.2644 4.78622 25.8138 6.56464 25.8138C8.34306 25.8138 9.79366 27.2644 9.79366 29.0429C9.79366 30.8213 8.34306 32.2719 6.56464 32.2719ZM6.56464 27.1251C5.50742 27.1251 4.64689 27.9856 4.64689 29.0429C4.64689 30.1001 5.50742 30.9606 6.56464 30.9606C7.62185 30.9606 8.48238 30.1001 8.48238 29.0429C8.48238 27.9856 7.62185 27.1251 6.56464 27.1251Z" fill="#3C663E"/>
<path d="M10.1051 31.6162C11.5264 31.6162 12.6785 30.4641 12.6785 29.0429C12.6785 27.6216 11.5264 26.4695 10.1051 26.4695C8.68388 26.4695 7.53174 27.6216 7.53174 29.0429C7.53174 30.4641 8.68388 31.6162 10.1051 31.6162Z" fill="#E7FFE1"/>
<path d="M10.1051 32.2719C8.3267 32.2719 6.8761 30.8213 6.8761 29.0429C6.8761 27.2644 8.3267 25.8138 10.1051 25.8138C11.8835 25.8138 13.3341 27.2644 13.3341 29.0429C13.3341 30.8213 11.8835 32.2719 10.1051 32.2719ZM10.1051 27.1251C9.0479 27.1251 8.18738 27.9856 8.18738 29.0429C8.18738 30.1001 9.0479 30.9606 10.1051 30.9606C11.1623 30.9606 12.0229 30.1001 12.0229 29.0429C12.0229 27.9856 11.1623 27.1251 10.1051 27.1251Z" fill="#3C663E"/>
<path d="M23.2999 15.2089H29.3892C30.1104 15.2089 30.7005 15.7989 30.7005 16.5201V18.4051" fill="#B2EDA6"/>
<path d="M30.7005 19.3886C30.1596 19.3886 29.717 18.9461 29.717 18.4052V16.5202C29.717 16.3399 29.5695 16.1924 29.3892 16.1924H23.2999C22.759 16.1924 22.3165 15.7498 22.3165 15.2089C22.3165 14.668 22.759 14.2255 23.2999 14.2255H29.3892C30.6513 14.2255 31.6839 15.2581 31.6839 16.5202V18.4052C31.6839 18.9461 31.2414 19.3886 30.7005 19.3886Z" fill="#3C663E"/>
</svg>
