<svg width="35" height="42" viewBox="0 0 35 42" fill="none" xmlns="http://www.w3.org/2000/svg">
<path d="M17.4084 42C27.0227 42 34.8167 40.0684 34.8167 37.6858C34.8167 35.3031 27.0227 33.3716 17.4084 33.3716C7.79399 33.3716 0 35.3031 0 37.6858C0 40.0684 7.79399 42 17.4084 42Z" fill="#B8CBCD"/>
<path d="M29.5818 5.11287C29.5818 5.11287 29.5818 5.0307 29.5818 4.93026C29.5818 4.82983 29.4525 4.10307 29.2955 3.31531L29.1377 2.52829C28.9803 1.74017 28.194 1.09558 27.3906 1.09558H6.20852C5.40506 1.09558 4.61841 1.74017 4.46137 2.52793L4.3036 3.31495C4.14619 4.1027 4.01727 4.82947 4.01727 4.9299C4.01727 5.03033 4.01727 5.1125 4.01727 5.1125" fill="white"/>
<path d="M29.5817 6.20853C28.9766 6.20853 28.4861 5.71806 28.4861 5.11291V4.97924C28.4646 4.81746 28.3674 4.26271 28.2206 3.52973L28.0632 2.74344C28.0088 2.46954 27.6692 2.19125 27.3905 2.19125H6.20844C5.92942 2.19125 5.59014 2.46954 5.53573 2.74271L5.37759 3.53046C5.23151 4.26234 5.134 4.81746 5.11245 4.97924V5.11291C5.11245 5.71806 4.62198 6.20853 4.01683 6.20853C3.41168 6.20853 2.9212 5.71806 2.9212 5.11291V4.93031C2.9212 4.85873 2.9212 4.64143 3.22871 3.10061L3.38684 2.31286C3.64578 1.01637 4.88529 0 6.20844 0H27.3905C28.7136 0 29.9532 1.01637 30.2125 2.31359L30.3699 3.09988C30.6777 4.64143 30.6777 4.85873 30.6777 4.93031V5.11291C30.6774 5.71806 30.1869 6.20853 29.5817 6.20853Z" fill="#324654"/>
<path d="M29.5818 5.11292V36.886H4.01727V5.11292" fill="#B9E3ED"/>
<path d="M29.5818 37.9817H4.01728C3.41214 37.9817 2.92166 37.4912 2.92166 36.886V5.11296C2.92166 4.50781 3.41214 4.01733 4.01728 4.01733C4.62243 4.01733 5.11291 4.50781 5.11291 5.11296V35.7904H28.4862V5.11296C28.4862 4.50781 28.9767 4.01733 29.5818 4.01733C30.187 4.01733 30.6775 4.50781 30.6775 5.11296V36.886C30.6775 37.4912 30.187 37.9817 29.5818 37.9817Z" fill="#324654"/>
<path d="M29.2166 20.8169H4.38248V26.295H29.2166V20.8169Z" fill="white"/>
<path d="M28.4862 21.5473V25.5645H5.1129V21.5473H28.4862ZM29.947 20.0864H3.65207V27.0254H29.947V20.0864Z" fill="#324654"/>
<path d="M18.2604 30.6775H8.39979C7.99623 30.6775 7.66937 30.3503 7.66937 29.9471C7.66937 29.5439 7.99623 29.2167 8.39979 29.2167H18.2604C18.6636 29.2167 18.9908 29.5439 18.9908 29.9471C18.9908 30.3503 18.6636 30.6775 18.2604 30.6775Z" fill="#324654"/>
<path d="M14.9735 33.5991H8.39979C7.99623 33.5991 7.66937 33.2719 7.66937 32.8687C7.66937 32.4655 7.99623 32.1383 8.39979 32.1383H14.9735C15.3767 32.1383 15.7039 32.4655 15.7039 32.8687C15.7039 33.2719 15.3767 33.5991 14.9735 33.5991Z" fill="#324654"/>
<path d="M29.5818 6.57375H4.38248C3.97893 6.57375 3.65207 6.24652 3.65207 5.84333C3.65207 5.44014 3.97893 5.11292 4.38248 5.11292H29.5818C29.985 5.11292 30.3122 5.44014 30.3122 5.84333C30.3122 6.24652 29.985 6.57375 29.5818 6.57375Z" fill="#324654"/>
<path d="M29.5818 4.38246H4.38248C3.97893 4.38246 3.65207 4.05524 3.65207 3.65205C3.65207 3.24886 3.97893 2.92163 4.38248 2.92163H29.5818C29.985 2.92163 30.3122 3.24886 30.3122 3.65205C30.3122 4.05524 29.985 4.38246 29.5818 4.38246Z" fill="#324654"/>
<path d="M16.4343 17.8952C18.8547 17.8952 20.8168 15.9331 20.8168 13.5127C20.8168 11.0924 18.8547 9.13025 16.4343 9.13025C14.014 9.13025 12.0518 11.0924 12.0518 13.5127C12.0518 15.9331 14.014 17.8952 16.4343 17.8952Z" fill="white"/>
<path d="M17.1648 14.6083C17.1648 15.2109 16.8361 15.7039 16.4343 15.7039C16.0326 15.7039 15.7039 15.2109 15.7039 14.6083V12.417C15.7039 11.8144 16.0326 11.3214 16.4343 11.3214C16.8361 11.3214 17.1648 11.8144 17.1648 12.417V14.6083Z" fill="#324654"/>
<path d="M15.3387 14.2431C14.7361 14.2431 14.2431 13.9144 14.2431 13.5126C14.2431 13.1109 14.7361 12.7822 15.3387 12.7822H17.53C18.1326 12.7822 18.6256 13.1109 18.6256 13.5126C18.6256 13.9144 18.1326 14.2431 17.53 14.2431H15.3387Z" fill="#324654"/>
</svg>
