<svg width="42" height="35" viewBox="0 0 42 35" fill="none" xmlns="http://www.w3.org/2000/svg">
<path d="M20.942 34.5799C30.0798 34.5799 37.4875 32.7441 37.4875 30.4795C37.4875 28.215 30.0798 26.3792 20.942 26.3792C11.8041 26.3792 4.39639 28.215 4.39639 30.4795C4.39639 32.7441 11.8041 34.5799 20.942 34.5799Z" fill="#B8CBCD"/>
<path d="M33.3223 9.37189L30.7058 4.7689C30.5173 4.43672 30.0505 4.16528 29.6686 4.16528H11.6482C11.2664 4.16528 10.829 4.45165 10.676 4.80153L8.67767 9.37189" fill="#FFBAB0"/>
<path d="M8.67702 10.4135C8.53783 10.4135 8.39621 10.3854 8.26049 10.3261C7.73359 10.0956 7.49304 9.48189 7.72352 8.95498L9.72182 4.38462C10.0412 3.6543 10.8513 3.12427 11.6483 3.12427H29.6687C30.4223 3.12427 31.239 3.59981 31.6115 4.2548L34.2276 8.85779C34.5119 9.35763 34.3369 9.99353 33.8368 10.2775C33.3369 10.5611 32.701 10.3868 32.4171 9.88697L29.8006 5.28397C29.7829 5.26592 29.6926 5.21351 29.6479 5.20587L11.6771 5.20657C11.6583 5.21455 11.633 5.23121 11.6184 5.2451L9.63157 9.78908C9.46079 10.1803 9.07828 10.4132 8.67702 10.4135Z" fill="#783741"/>
<path d="M40.3801 16.6611L38.1568 12.4164C37.9795 12.0783 37.5223 11.8016 37.1405 11.8016H33.6694C33.2876 11.8016 32.9752 12.114 32.9752 12.4959V16.314" fill="#FFBAB0"/>
<path d="M40.3811 17.7029C40.0062 17.7029 39.6438 17.4998 39.4578 17.1447L37.2346 12.9003C37.2245 12.893 37.1523 12.8493 37.1148 12.8416L34.0165 12.843V16.3141C34.0165 16.8892 33.5504 17.3554 32.9752 17.3554C32.4001 17.3554 31.9339 16.8892 31.9339 16.3141V12.4959C31.9339 11.5389 32.7125 10.7604 33.6694 10.7604H37.1405C37.9076 10.7604 38.723 11.2536 39.0791 11.9329L41.3027 16.1777C41.5696 16.6872 41.3728 17.3165 40.8632 17.5835C40.7091 17.6643 40.5439 17.7029 40.3811 17.7029Z" fill="#783741"/>
<path d="M1.73553 16.314L4.3142 12.382C4.5235 12.0627 5.00737 11.8016 5.38919 11.8016H8.51315C8.89497 11.8016 9.20737 12.114 9.20737 12.4959V16.314" fill="#FFBAB0"/>
<path d="M1.73443 17.3558C1.53866 17.3558 1.34046 17.3006 1.16413 17.185C0.68339 16.8695 0.549059 16.2238 0.86458 15.7431L3.44324 11.8111C3.84241 11.2022 4.66055 10.7604 5.38913 10.7604H8.51309C9.47007 10.7604 10.2486 11.5389 10.2486 12.4959V16.3141C10.2486 16.8893 9.78246 17.3554 9.20731 17.3554C8.63215 17.3554 8.16598 16.8893 8.16598 16.3141V12.843H5.38913C5.34088 12.85 5.21731 12.9166 5.17739 12.9638L2.60637 16.8851C2.40608 17.1898 2.07356 17.3558 1.73443 17.3558Z" fill="#783741"/>
<path d="M33.3223 9.37195H8.67767V29.5042H33.3223V9.37195Z" fill="#FFBAB0"/>
<path d="M33.3223 30.1984H8.67767C8.29412 30.1984 7.98346 29.8874 7.98346 29.5042V9.37195C7.98346 8.98874 8.29412 8.67773 8.67767 8.67773H33.3223C33.7055 8.67773 34.0165 8.98874 34.0165 9.37195V29.5042C34.0165 29.8874 33.7055 30.1984 33.3223 30.1984ZM9.37189 28.81H32.6281V10.0662H9.37189V28.81Z" fill="#783741"/>
<path d="M40.9587 17.0083H33.3223V29.5042H40.9587V17.0083Z" fill="#FFBAB0"/>
<path d="M40.9587 30.1984H33.3223C32.9388 30.1984 32.6281 29.8874 32.6281 29.5042V17.0083C32.6281 16.6251 32.9388 16.3141 33.3223 16.3141H40.9587C41.3419 16.3141 41.6529 16.6251 41.6529 17.0083V29.5042C41.6529 29.8874 41.3419 30.1984 40.9587 30.1984ZM34.0165 28.81H40.2645V17.7025H34.0165V28.81Z" fill="#783741"/>
<path d="M8.67768 17.0083H1.04132V29.5042H8.67768V17.0083Z" fill="#FFBAB0"/>
<path d="M8.67768 30.1984H1.04132C0.658115 30.1984 0.347107 29.8874 0.347107 29.5042V17.0083C0.347107 16.6251 0.658115 16.3141 1.04132 16.3141H8.67768C9.06089 16.3141 9.3719 16.6251 9.3719 17.0083V29.5042C9.3719 29.8874 9.06089 30.1984 8.67768 30.1984ZM1.73554 28.81H7.98347V17.7025H1.73554V28.81Z" fill="#783741"/>
<path d="M40.9587 30.5455H1.04132C0.466165 30.5455 0 30.0793 0 29.5042V17.3554C0 17.168 0.0506777 16.984 0.146479 16.8226L3.45302 11.2689C3.64081 10.9537 3.98063 10.7604 4.34787 10.7604H7.28926V9.37196C7.28926 9.22826 7.31876 9.08629 7.37673 8.95473L9.65306 3.74812C9.81863 3.36908 10.1928 3.12402 10.6069 3.12402H30.0158C30.3552 3.12402 30.6732 3.28959 30.8683 3.56728L34.5219 8.77389C34.6448 8.94918 34.7107 9.15779 34.7107 9.37196V10.7604H37.8347C38.212 10.7604 38.5602 10.9645 38.7441 11.2942L41.8681 16.8913C41.9549 17.0465 42 17.2211 42 17.3988V29.5042C42 30.0793 41.5335 30.5455 40.9587 30.5455ZM2.08264 28.4629H39.9174V17.6699L37.2235 12.843H33.6694C33.0943 12.843 32.6281 12.3769 32.6281 11.8017V9.70102L29.4743 5.20667H11.2879L9.3719 9.58959V11.8017C9.3719 12.3769 8.90574 12.843 8.33058 12.843H4.93969L2.08264 17.6421V28.4629Z" fill="#783741"/>
<path opacity="0.2" d="M8.67768 16.6611H5.2066V29.5041H8.67768V16.6611Z" fill="#783741"/>
<path opacity="0.2" d="M36.7934 16.6611H33.3223V29.5041H36.7934V16.6611Z" fill="#783741"/>
<path d="M25.686 7.28926C25.1108 7.28926 24.6446 6.8231 24.6446 6.24794V2.08265H17.0083V6.24794C17.0083 6.8231 16.5421 7.28926 15.967 7.28926C15.3918 7.28926 14.9256 6.8231 14.9256 6.24794V1.04132C14.9256 0.466166 15.3918 0 15.967 0H25.686C26.2611 0 26.7273 0.466166 26.7273 1.04132V6.24794C26.7273 6.8231 26.2608 7.28926 25.686 7.28926Z" fill="#783741"/>
<path d="M21 26.033C24.5465 26.033 27.4215 23.158 27.4215 19.6116C27.4215 16.0651 24.5465 13.1901 21 13.1901C17.4535 13.1901 14.5785 16.0651 14.5785 19.6116C14.5785 23.158 17.4535 26.033 21 26.033Z" fill="white"/>
<path d="M22.2149 21.8677C22.2149 22.4405 21.7463 22.9091 21.1736 22.9091C20.6008 22.9091 20.1322 22.4405 20.1322 21.8677V17.7025C20.1322 17.1297 20.6008 16.6611 21.1736 16.6611C21.7463 16.6611 22.2149 17.1297 22.2149 17.7025V21.8677Z" fill="#783741"/>
<path d="M19.0909 20.8264C18.5182 20.8264 18.0496 20.3578 18.0496 19.7851C18.0496 19.2124 18.5182 18.7438 19.0909 18.7438H23.2562C23.8289 18.7438 24.2975 19.2124 24.2975 19.7851C24.2975 20.3578 23.8289 20.8264 23.2562 20.8264H19.0909Z" fill="#783741"/>
</svg>
