<svg width="1164" height="101" viewBox="0 0 1164 101" fill="none" xmlns="http://www.w3.org/2000/svg">
<path opacity="0.4" d="M119.9 103V104H120.9V103H119.9ZM119.9 2.94999H120.9V1.94999H119.9V2.94999ZM78.05 2.94999V1.94999H77.3509L77.1108 2.6066L78.05 2.94999ZM60.5 50.95L59.5608 51.2934L60.5 53.8621L61.4392 51.2934L60.5 50.95ZM42.95 2.94999L43.8892 2.6066L43.6491 1.94999H42.95V2.94999ZM1.1 2.94999V1.94999H0.1V2.94999H1.1ZM1.1 103H0.1V104H1.1V103ZM31.4 103V104H32.4V103H31.4ZM31.4 42.85L32.3374 42.5017L30.4 42.85H31.4ZM53.75 103L52.8126 103.348L53.0548 104H53.75V103ZM67.25 103V104H67.9452L68.1874 103.348L67.25 103ZM89.6 42.85H90.6L88.6626 42.5017L89.6 42.85ZM89.6 103H88.6V104H89.6V103ZM120.9 103V2.94999H118.9V103H120.9ZM119.9 1.94999H78.05V3.94999H119.9V1.94999ZM77.1108 2.6066L59.5608 50.6066L61.4392 51.2934L78.9892 3.29338L77.1108 2.6066ZM61.4392 50.6066L43.8892 2.6066L42.0108 3.29338L59.5608 51.2934L61.4392 50.6066ZM42.95 1.94999H1.1V3.94999H42.95V1.94999ZM0.1 2.94999V103H2.1V2.94999H0.1ZM1.1 104H31.4V102H1.1V104ZM32.4 103V42.85H30.4V103H32.4ZM30.4626 43.1983L52.8126 103.348L54.6874 102.652L32.3374 42.5017L30.4626 43.1983ZM53.75 104H67.25V102H53.75V104ZM68.1874 103.348L90.5374 43.1983L88.6626 42.5017L66.3126 102.652L68.1874 103.348ZM88.6 42.85V103H90.6V42.85H88.6ZM89.6 104H119.9V102H89.6V104ZM215.059 103V104H216.059V103H215.059ZM215.059 76.6H216.059V75.6H215.059V76.6ZM169.459 76.6H168.459V77.6H169.459V76.6ZM169.459 65.65V64.65H168.459V65.65H169.459ZM214.009 65.65V66.65H215.009V65.65H214.009ZM214.009 39.25H215.009V38.25H214.009V39.25ZM169.459 39.25H168.459V40.25H169.459V39.25ZM169.459 29.35V28.35H168.459V29.35H169.459ZM215.059 29.35V30.35H216.059V29.35H215.059ZM215.059 2.94999H216.059V1.94999H215.059V2.94999ZM139.159 2.94999V1.94999H138.159V2.94999H139.159ZM139.159 103H138.159V104H139.159V103ZM216.059 103V76.6H214.059V103H216.059ZM215.059 75.6H169.459V77.6H215.059V75.6ZM170.459 76.6V65.65H168.459V76.6H170.459ZM169.459 66.65H214.009V64.65H169.459V66.65ZM215.009 65.65V39.25H213.009V65.65H215.009ZM214.009 38.25H169.459V40.25H214.009V38.25ZM170.459 39.25V29.35H168.459V39.25H170.459ZM169.459 30.35H215.059V28.35H169.459V30.35ZM216.059 29.35V2.94999H214.059V29.35H216.059ZM215.059 1.94999H139.159V3.94999H215.059V1.94999ZM138.159 2.94999V103H140.159V2.94999H138.159ZM139.159 104H215.059V102H139.159V104ZM226.414 121.45H225.414V122.45H226.414V121.45ZM256.714 121.45V122.45H257.714V121.45H256.714ZM256.714 103V102H255.714V103H256.714ZM306.364 103H307.364V102H306.364V103ZM306.364 121.45H305.364V122.45H306.364V121.45ZM336.664 121.45V122.45H337.664V121.45H336.664ZM336.664 76.6H337.664V75.6H336.664V76.6ZM327.964 76.6H326.964V77.6H327.964V76.6ZM327.964 2.94999H328.964V1.94999H327.964V2.94999ZM249.814 2.94999V1.94999H248.929L248.821 2.82887L249.814 2.94999ZM243.664 53.35L244.656 53.475L244.657 53.4711L243.664 53.35ZM226.414 78.1L226.234 77.1164L225.414 77.2667V78.1H226.414ZM273.814 55.6L272.822 55.4753L272.821 55.4822L273.814 55.6ZM277.114 29.35V28.35H276.232L276.122 29.2253L277.114 29.35ZM297.664 29.35H298.664V28.35H297.664V29.35ZM297.664 76.6V77.6H298.664V76.6H297.664ZM264.064 76.6L263.347 75.9032L261.698 77.6H264.064V76.6ZM226.414 122.45H256.714V120.45H226.414V122.45ZM257.714 121.45V103H255.714V121.45H257.714ZM256.714 104H306.364V102H256.714V104ZM305.364 103V121.45H307.364V103H305.364ZM306.364 122.45H336.664V120.45H306.364V122.45ZM337.664 121.45V76.6H335.664V121.45H337.664ZM336.664 75.6H327.964V77.6H336.664V75.6ZM328.964 76.6V2.94999H326.964V76.6H328.964ZM327.964 1.94999H249.814V3.94999H327.964V1.94999ZM248.821 2.82887L242.671 53.2289L244.657 53.4711L250.807 3.07112L248.821 2.82887ZM242.672 53.225C241.479 62.691 239.447 68.2421 236.734 71.6243C234.061 74.9563 230.624 76.3116 226.234 77.1164L226.594 79.0836C231.204 78.2384 235.192 76.7437 238.294 72.8757C241.356 69.0579 243.449 63.059 244.656 53.475L242.672 53.225ZM225.414 78.1V121.45H227.414V78.1H225.414ZM274.806 55.7247L278.106 29.4747L276.122 29.2253L272.822 55.4753L274.806 55.7247ZM277.114 30.35H297.664V28.35H277.114V30.35ZM296.664 29.35V76.6H298.664V29.35H296.664ZM297.664 75.6H264.064V77.6H297.664V75.6ZM264.781 77.2968C270.033 71.8911 273.731 64.7884 274.807 55.7178L272.821 55.4822C271.797 64.1116 268.296 70.8089 263.347 75.9032L264.781 77.2968ZM378.751 103V104H379.293L379.589 103.545L378.751 103ZM415.651 46.3H416.651V42.9301L414.813 45.7545L415.651 46.3ZM415.651 103H414.651V104H415.651V103ZM445.951 103V104H446.951V103H445.951ZM445.951 2.94999H446.951V1.94999H445.951V2.94999ZM414.751 2.94999V1.94999H414.209L413.913 2.40401L414.751 2.94999ZM379.951 56.35H378.951V59.716L380.789 56.896L379.951 56.35ZM379.951 2.94999H380.951V1.94999H379.951V2.94999ZM349.651 2.94999V1.94999H348.651V2.94999H349.651ZM349.651 103H348.651V104H349.651V103ZM379.589 103.545L416.489 46.8455L414.813 45.7545L377.913 102.455L379.589 103.545ZM414.651 46.3V103H416.651V46.3H414.651ZM415.651 104H445.951V102H415.651V104ZM446.951 103V2.94999H444.951V103H446.951ZM445.951 1.94999H414.751V3.94999H445.951V1.94999ZM413.913 2.40401L379.113 55.804L380.789 56.896L415.589 3.49597L413.913 2.40401ZM380.951 56.35V2.94999H378.951V56.35H380.951ZM379.951 1.94999H349.651V3.94999H379.951V1.94999ZM348.651 2.94999V103H350.651V2.94999H348.651ZM349.651 104H378.751V102H349.651V104ZM540.001 121.45H539.001V122.45H540.001V121.45ZM570.301 121.45V122.45H571.301V121.45H570.301ZM570.301 76.6H571.301V75.6H570.301V76.6ZM561.601 76.6H560.601V77.6H561.601V76.6ZM561.601 2.94999H562.601V1.94999H561.601V2.94999ZM531.301 2.94999V1.94999H530.301V2.94999H531.301ZM531.301 76.6V77.6H532.301V76.6H531.301ZM495.451 76.6H494.451V77.6H495.451V76.6ZM495.451 2.94999H496.451V1.94999H495.451V2.94999ZM465.151 2.94999V1.94999H464.151V2.94999H465.151ZM465.151 103H464.151V104H465.151V103ZM540.001 103H541.001V102H540.001V103ZM540.001 122.45H570.301V120.45H540.001V122.45ZM571.301 121.45V76.6H569.301V121.45H571.301ZM570.301 75.6H561.601V77.6H570.301V75.6ZM562.601 76.6V2.94999H560.601V76.6H562.601ZM561.601 1.94999H531.301V3.94999H561.601V1.94999ZM530.301 2.94999V76.6H532.301V2.94999H530.301ZM531.301 75.6H495.451V77.6H531.301V75.6ZM496.451 76.6V2.94999H494.451V76.6H496.451ZM495.451 1.94999H465.151V3.94999H495.451V1.94999ZM464.151 2.94999V103H466.151V2.94999H464.151ZM465.151 104H540.001V102H465.151V104ZM539.001 103V121.45H541.001V103H539.001ZM612.388 103V104H612.93L613.226 103.545L612.388 103ZM649.287 46.3H650.287V42.9301L648.449 45.7545L649.287 46.3ZM649.287 103H648.287V104H649.287V103ZM679.588 103V104H680.588V103H679.588ZM679.588 2.94999H680.588V1.94999H679.588V2.94999ZM648.388 2.94999V1.94999H647.846L647.55 2.40401L648.388 2.94999ZM613.588 56.35H612.588V59.716L614.425 56.896L613.588 56.35ZM613.588 2.94999H614.588V1.94999H613.588V2.94999ZM583.287 2.94999V1.94999H582.287V2.94999H583.287ZM583.287 103H582.287V104H583.287V103ZM613.226 103.545L650.126 46.8455L648.449 45.7545L611.549 102.455L613.226 103.545ZM648.287 46.3V103H650.287V46.3H648.287ZM649.287 104H679.588V102H649.287V104ZM680.588 103V2.94999H678.588V103H680.588ZM679.588 1.94999H648.388V3.94999H679.588V1.94999ZM647.55 2.40401L612.75 55.804L614.425 56.896L649.225 3.49597L647.55 2.40401ZM614.588 56.35V2.94999H612.588V56.35H614.588ZM613.588 1.94999H583.287V3.94999H613.588V1.94999ZM582.287 2.94999V103H584.287V2.94999H582.287ZM583.287 104H612.388V102H583.287V104ZM795.237 103V104H796.237V103H795.237ZM795.237 2.94999H796.237V1.94999H795.237V2.94999ZM764.938 2.94999V1.94999H763.938V2.94999H764.938ZM764.938 38.35V39.35H765.938V38.35H764.938ZM729.088 38.35H728.088V39.35H729.088V38.35ZM729.088 2.94999H730.088V1.94999H729.088V2.94999ZM698.787 2.94999V1.94999H697.787V2.94999H698.787ZM698.787 103H697.787V104H698.787V103ZM729.088 103V104H730.088V103H729.088ZM729.088 64.75V63.75H728.088V64.75H729.088ZM764.938 64.75H765.938V63.75H764.938V64.75ZM764.938 103H763.938V104H764.938V103ZM796.237 103V2.94999H794.237V103H796.237ZM795.237 1.94999H764.938V3.94999H795.237V1.94999ZM763.938 2.94999V38.35H765.938V2.94999H763.938ZM764.938 37.35H729.088V39.35H764.938V37.35ZM730.088 38.35V2.94999H728.088V38.35H730.088ZM729.088 1.94999H698.787V3.94999H729.088V1.94999ZM697.787 2.94999V103H699.787V2.94999H697.787ZM698.787 104H729.088V102H698.787V104ZM730.088 103V64.75H728.088V103H730.088ZM729.088 65.75H764.938V63.75H729.088V65.75ZM763.938 64.75V103H765.938V64.75H763.938ZM764.938 104H795.237V102H764.938V104ZM909.534 75.55L910.45 75.9514L910.844 75.0517L909.952 74.6414L909.534 75.55ZM883.434 63.55L883.852 62.6414L882.832 62.1727L882.483 63.2393L883.434 63.55ZM883.434 42.55L882.483 42.8607L882.834 43.9324L883.856 43.4566L883.434 42.55ZM909.534 30.4L909.956 31.3066L910.84 30.8952L910.451 30.0013L909.534 30.4ZM864.084 105.8C890.845 105.8 904.492 89.548 910.45 75.9514L908.618 75.1486C902.876 88.2521 889.823 103.8 864.084 103.8V105.8ZM909.952 74.6414L883.852 62.6414L883.016 64.4586L909.116 76.4586L909.952 74.6414ZM882.483 63.2393C880.048 70.6889 872.591 77.1 864.084 77.1V79.1C873.577 79.1 881.72 72.0111 884.384 63.8607L882.483 63.2393ZM864.084 77.1C850.142 77.1 840.784 66.5049 840.784 53.05H838.784C838.784 67.4951 848.926 79.1 864.084 79.1V77.1ZM840.784 53.05C840.784 39.5951 850.142 29 864.084 29V27C848.926 27 838.784 38.6049 838.784 53.05H840.784ZM864.084 29C872.591 29 880.048 35.4111 882.483 42.8607L884.384 42.2393C881.72 34.0889 873.577 27 864.084 27V29ZM883.856 43.4566L909.956 31.3066L909.112 29.4934L883.012 41.6434L883.856 43.4566ZM910.451 30.0013C904.338 15.9401 890.834 0.299995 864.084 0.299995V2.3C889.834 2.3 902.73 17.2599 908.617 30.7987L910.451 30.0013ZM864.084 0.299995C832.26 0.299995 808.034 21.5227 808.034 53.05H810.034C810.034 22.7773 833.208 2.3 864.084 2.3V0.299995ZM808.034 53.05C808.034 84.4254 832.258 105.8 864.084 105.8V103.8C833.21 103.8 810.034 83.1746 810.034 53.05H808.034ZM1017.27 103V104H1019.25L1018.08 102.407L1017.27 103ZM977.824 49.45L977.048 48.8192L976.56 49.4199L977.019 50.0431L977.824 49.45ZM1015.62 2.94999L1016.4 3.58077L1017.73 1.94999H1015.62V2.94999ZM978.574 2.94999V1.94999H978.053L977.755 2.37653L978.574 2.94999ZM952.324 40.45H951.324V43.6224L953.143 41.0235L952.324 40.45ZM952.324 2.94999H953.324V1.94999H952.324V2.94999ZM922.024 2.94999V1.94999H921.024V2.94999H922.024ZM922.024 103H921.024V104H922.024V103ZM952.324 103V104H953.324V103H952.324ZM952.324 75.25L951.52 74.6552L951.324 74.9202V75.25H952.324ZM957.874 67.75L958.717 67.212L957.935 65.9867L957.07 67.1552L957.874 67.75ZM980.374 103L979.531 103.538L979.826 104H980.374V103ZM1018.08 102.407L978.629 48.8569L977.019 50.0431L1016.47 103.593L1018.08 102.407ZM978.6 50.0808L1016.4 3.58077L1014.85 2.31921L977.048 48.8192L978.6 50.0808ZM1015.62 1.94999H978.574V3.94999H1015.62V1.94999ZM977.755 2.37653L951.505 39.8765L953.143 41.0235L979.393 3.52345L977.755 2.37653ZM953.324 40.45V2.94999H951.324V40.45H953.324ZM952.324 1.94999H922.024V3.94999H952.324V1.94999ZM921.024 2.94999V103H923.024V2.94999H921.024ZM922.024 104H952.324V102H922.024V104ZM953.324 103V75.25H951.324V103H953.324ZM953.128 75.8448L958.678 68.3448L957.07 67.1552L951.52 74.6552L953.128 75.8448ZM957.031 68.288L979.531 103.538L981.217 102.462L958.717 67.212L957.031 68.288ZM980.374 104H1017.27V102H980.374V104ZM1054.76 103V104H1055.3L1055.6 103.545L1054.76 103ZM1091.66 46.3H1092.66V42.9301L1090.82 45.7545L1091.66 46.3ZM1091.66 103H1090.66V104H1091.66V103ZM1121.96 103V104H1122.96V103H1121.96ZM1121.96 2.94999H1122.96V1.94999H1121.96V2.94999ZM1090.76 2.94999V1.94999H1090.22L1089.92 2.40401L1090.76 2.94999ZM1055.96 56.35H1054.96V59.716L1056.8 56.896L1055.96 56.35ZM1055.96 2.94999H1056.96V1.94999H1055.96V2.94999ZM1025.66 2.94999V1.94999H1024.66V2.94999H1025.66ZM1025.66 103H1024.66V104H1025.66V103ZM1055.6 103.545L1092.5 46.8455L1090.82 45.7545L1053.92 102.455L1055.6 103.545ZM1090.66 46.3V103H1092.66V46.3H1090.66ZM1091.66 104H1121.96V102H1091.66V104ZM1122.96 103V2.94999H1120.96V103H1122.96ZM1121.96 1.94999H1090.76V3.94999H1121.96V1.94999ZM1089.92 2.40401L1055.12 55.804L1056.8 56.896L1091.6 3.49597L1089.92 2.40401ZM1056.96 56.35V2.94999H1054.96V56.35H1056.96ZM1055.96 1.94999H1025.66V3.94999H1055.96V1.94999ZM1024.66 2.94999V103H1026.66V2.94999H1024.66ZM1025.66 104H1054.76V102H1025.66V104ZM1217.06 103V104H1218.06V103H1217.06ZM1217.06 76.6H1218.06V75.6H1217.06V76.6ZM1171.46 76.6H1170.46V77.6H1171.46V76.6ZM1171.46 65.65V64.65H1170.46V65.65H1171.46ZM1216.01 65.65V66.65H1217.01V65.65H1216.01ZM1216.01 39.25H1217.01V38.25H1216.01V39.25ZM1171.46 39.25H1170.46V40.25H1171.46V39.25ZM1171.46 29.35V28.35H1170.46V29.35H1171.46ZM1217.06 29.35V30.35H1218.06V29.35H1217.06ZM1217.06 2.94999H1218.06V1.94999H1217.06V2.94999ZM1141.16 2.94999V1.94999H1140.16V2.94999H1141.16ZM1141.16 103H1140.16V104H1141.16V103ZM1218.06 103V76.6H1216.06V103H1218.06ZM1217.06 75.6H1171.46V77.6H1217.06V75.6ZM1172.46 76.6V65.65H1170.46V76.6H1172.46ZM1171.46 66.65H1216.01V64.65H1171.46V66.65ZM1217.01 65.65V39.25H1215.01V65.65H1217.01ZM1216.01 38.25H1171.46V40.25H1216.01V38.25ZM1172.46 39.25V29.35H1170.46V39.25H1172.46ZM1171.46 30.35H1217.06V28.35H1171.46V30.35ZM1218.06 29.35V2.94999H1216.06V29.35H1218.06ZM1217.06 1.94999H1141.16V3.94999H1217.06V1.94999ZM1140.16 2.94999V103H1142.16V2.94999H1140.16ZM1141.16 104H1217.06V102H1141.16V104ZM1328.9 82.9L1329.79 83.3515L1329.79 83.3479L1328.9 82.9ZM1368.95 2.94999L1369.84 3.39788L1370.57 1.94999H1368.95V2.94999ZM1335.05 2.94999V1.94999H1334.4L1334.14 2.53391L1335.05 2.94999ZM1316.45 43.6L1315.54 44.0133L1316.44 46.0114L1317.36 44.0161L1316.45 43.6ZM1298 2.94999L1298.91 2.5367L1298.64 1.94999H1298V2.94999ZM1264.1 2.94999V1.94999H1262.48L1263.2 3.39797L1264.1 2.94999ZM1299.35 73.3L1300.18 73.8547L1300.5 73.3714L1300.24 72.852L1299.35 73.3ZM1276.4 73.6L1276.96 72.7738L1276.04 72.1453L1275.51 73.13L1276.4 73.6ZM1264.1 96.7L1263.21 96.23L1262.82 96.9768L1263.49 97.4926L1264.1 96.7ZM1292 105.8C1301.84 105.8 1309.69 103.393 1315.89 99.3568C1322.08 95.3232 1326.58 89.6998 1329.79 83.3515L1328 82.4485C1324.92 88.5502 1320.64 93.8768 1314.79 97.6807C1308.96 101.482 1301.5 103.8 1292 103.8V105.8ZM1329.79 83.3479L1369.84 3.39788L1368.05 2.50211L1328 82.4521L1329.79 83.3479ZM1368.95 1.94999H1335.05V3.94999H1368.95V1.94999ZM1334.14 2.53391L1315.54 43.1839L1317.36 44.0161L1335.96 3.36607L1334.14 2.53391ZM1317.36 43.1867L1298.91 2.5367L1297.09 3.36329L1315.54 44.0133L1317.36 43.1867ZM1298 1.94999H1264.1V3.94999H1298V1.94999ZM1263.2 3.39797L1298.45 73.748L1300.24 72.852L1264.99 2.50202L1263.2 3.39797ZM1298.51 72.7453C1297.53 74.2172 1296.45 75.2798 1295.05 75.9889C1293.64 76.7029 1291.82 77.1 1289.3 77.1V79.1C1292.02 79.1 1294.18 78.6721 1295.95 77.7736C1297.74 76.8702 1299.06 75.5328 1300.18 73.8547L1298.51 72.7453ZM1289.3 77.1C1284.48 77.1 1280.18 74.9726 1276.96 72.7738L1275.83 74.4262C1279.21 76.7274 1283.91 79.1 1289.3 79.1V77.1ZM1275.51 73.13L1263.21 96.23L1264.98 97.17L1277.28 74.07L1275.51 73.13ZM1263.49 97.4926C1271.53 103.679 1282.13 105.8 1292 105.8V103.8C1282.36 103.8 1272.26 101.721 1264.71 95.9074L1263.49 97.4926ZM1469.53 75.55L1470.44 75.9514L1470.84 75.0517L1469.94 74.6414L1469.53 75.55ZM1443.43 63.55L1443.84 62.6414L1442.82 62.1727L1442.48 63.2393L1443.43 63.55ZM1443.43 42.55L1442.48 42.8607L1442.83 43.9324L1443.85 43.4566L1443.43 42.55ZM1469.53 30.4L1469.95 31.3066L1470.83 30.8952L1470.44 30.0013L1469.53 30.4ZM1424.08 105.8C1450.84 105.8 1464.48 89.548 1470.44 75.9514L1468.61 75.1486C1462.87 88.2521 1449.82 103.8 1424.08 103.8V105.8ZM1469.94 74.6414L1443.84 62.6414L1443.01 64.4586L1469.11 76.4586L1469.94 74.6414ZM1442.48 63.2393C1440.04 70.6889 1432.58 77.1 1424.08 77.1V79.1C1433.57 79.1 1441.71 72.0111 1444.38 63.8607L1442.48 63.2393ZM1424.08 77.1C1410.13 77.1 1400.78 66.5049 1400.78 53.05H1398.78C1398.78 67.4951 1408.92 79.1 1424.08 79.1V77.1ZM1400.78 53.05C1400.78 39.5951 1410.13 29 1424.08 29V27C1408.92 27 1398.78 38.6049 1398.78 53.05H1400.78ZM1424.08 29C1432.58 29 1440.04 35.4111 1442.48 42.8607L1444.38 42.2393C1441.71 34.0889 1433.57 27 1424.08 27V29ZM1443.85 43.4566L1469.95 31.3066L1469.1 29.4934L1443 41.6434L1443.85 43.4566ZM1470.44 30.0013C1464.33 15.9401 1450.83 0.299995 1424.08 0.299995V2.3C1449.83 2.3 1462.72 17.2599 1468.61 30.7987L1470.44 30.0013ZM1424.08 0.299995C1392.25 0.299995 1368.03 21.5227 1368.03 53.05H1370.03C1370.03 22.7773 1393.2 2.3 1424.08 2.3V0.299995ZM1368.03 53.05C1368.03 84.4254 1392.25 105.8 1424.08 105.8V103.8C1393.2 103.8 1370.03 83.1746 1370.03 53.05H1368.03ZM1475.45 104.8H1474.45V105.8H1475.45V104.8ZM1522.85 55.6L1521.86 55.4753L1521.86 55.4792L1522.85 55.6ZM1526.15 29.35V28.35H1525.27L1525.16 29.2253L1526.15 29.35ZM1546.7 29.35H1547.7V28.35H1546.7V29.35ZM1546.7 103H1545.7V104H1546.7V103ZM1577 103V104H1578V103H1577ZM1577 2.94999H1578V1.94999H1577V2.94999ZM1498.85 2.94999V1.94999H1497.97L1497.86 2.82887L1498.85 2.94999ZM1492.7 53.35L1493.69 53.475L1493.69 53.4711L1492.7 53.35ZM1475.45 78.1V77.1H1474.45V78.1H1475.45ZM1475.45 105.8C1487.21 105.8 1498.13 103.336 1506.73 95.7433C1515.33 88.1537 1521.43 75.5831 1523.84 55.7208L1521.86 55.4792C1519.48 75.0669 1513.5 87.0963 1505.41 94.2442C1497.32 101.389 1486.95 103.8 1475.45 103.8V105.8ZM1523.84 55.7247L1527.14 29.4747L1525.16 29.2253L1521.86 55.4753L1523.84 55.7247ZM1526.15 30.35H1546.7V28.35H1526.15V30.35ZM1545.7 29.35V103H1547.7V29.35H1545.7ZM1546.7 104H1577V102H1546.7V104ZM1578 103V2.94999H1576V103H1578ZM1577 1.94999H1498.85V3.94999H1577V1.94999ZM1497.86 2.82887L1491.71 53.2289L1493.69 53.4711L1499.84 3.07112L1497.86 2.82887ZM1491.71 53.225C1490.52 62.6855 1488.37 68.6609 1485.59 72.257C1482.86 75.7846 1479.46 77.1 1475.45 77.1V79.1C1479.99 79.1 1484.01 77.5654 1487.17 73.4805C1490.28 69.4641 1492.49 63.0644 1493.69 53.475L1491.71 53.225ZM1474.45 78.1V104.8H1476.45V78.1H1474.45ZM1650.35 82.9L1651.24 83.3515L1651.24 83.3479L1650.35 82.9ZM1690.4 2.94999L1691.29 3.39788L1692.02 1.94999H1690.4V2.94999ZM1656.5 2.94999V1.94999H1655.86L1655.59 2.53391L1656.5 2.94999ZM1637.9 43.6L1636.99 44.0133L1637.89 46.0114L1638.81 44.0161L1637.9 43.6ZM1619.45 2.94999L1620.36 2.5367L1620.09 1.94999H1619.45V2.94999ZM1585.55 2.94999V1.94999H1583.93L1584.65 3.39797L1585.55 2.94999ZM1620.8 73.3L1621.63 73.8547L1621.95 73.3714L1621.69 72.852L1620.8 73.3ZM1597.85 73.6L1598.41 72.7738L1597.49 72.1453L1596.96 73.13L1597.85 73.6ZM1585.55 96.7L1584.67 96.23L1584.27 96.9768L1584.94 97.4926L1585.55 96.7ZM1613.45 105.8C1623.29 105.8 1631.14 103.393 1637.34 99.3568C1643.53 95.3232 1648.03 89.6998 1651.24 83.3515L1649.46 82.4485C1646.37 88.5502 1642.09 93.8768 1636.25 97.6807C1630.41 101.482 1622.95 103.8 1613.45 103.8V105.8ZM1651.24 83.3479L1691.29 3.39788L1689.5 2.50211L1649.45 82.4521L1651.24 83.3479ZM1690.4 1.94999H1656.5V3.94999H1690.4V1.94999ZM1655.59 2.53391L1636.99 43.1839L1638.81 44.0161L1657.41 3.36607L1655.59 2.53391ZM1638.81 43.1867L1620.36 2.5367L1618.54 3.36329L1636.99 44.0133L1638.81 43.1867ZM1619.45 1.94999H1585.55V3.94999H1619.45V1.94999ZM1584.65 3.39797L1619.9 73.748L1621.69 72.852L1586.44 2.50202L1584.65 3.39797ZM1619.97 72.7453C1618.98 74.2172 1617.9 75.2798 1616.5 75.9889C1615.09 76.7029 1613.27 77.1 1610.75 77.1V79.1C1613.47 79.1 1615.63 78.6721 1617.41 77.7736C1619.19 76.8702 1620.51 75.5328 1621.63 73.8547L1619.97 72.7453ZM1610.75 77.1C1605.94 77.1 1601.64 74.9726 1598.41 72.7738L1597.28 74.4262C1600.66 76.7274 1605.36 79.1 1610.75 79.1V77.1ZM1596.96 73.13L1584.67 96.23L1586.43 97.17L1598.73 74.07L1596.96 73.13ZM1584.94 97.4926C1592.98 103.679 1603.58 105.8 1613.45 105.8V103.8C1603.81 103.8 1593.71 101.721 1586.16 95.9074L1584.94 97.4926ZM1729.11 103V104H1730.11V103H1729.11ZM1729.11 29.35V28.35H1728.11V29.35H1729.11ZM1774.71 29.35V30.35H1775.71V29.35H1774.71ZM1774.71 2.94999H1775.71V1.94999H1774.71V2.94999ZM1698.81 2.94999V1.94999H1697.81V2.94999H1698.81ZM1698.81 103H1697.81V104H1698.81V103ZM1730.11 103V29.35H1728.11V103H1730.11ZM1729.11 30.35H1774.71V28.35H1729.11V30.35ZM1775.71 29.35V2.94999H1773.71V29.35H1775.71ZM1774.71 1.94999H1698.81V3.94999H1774.71V1.94999ZM1697.81 2.94999V103H1699.81V2.94999H1697.81ZM1698.81 104H1729.11V102H1698.81V104ZM1819.68 103V104H1820.22L1820.51 103.545L1819.68 103ZM1856.58 46.3H1857.58V42.9301L1855.74 45.7545L1856.58 46.3ZM1856.58 103H1855.58V104H1856.58V103ZM1886.88 103V104H1887.88V103H1886.88ZM1886.88 2.94999H1887.88V1.94999H1886.88V2.94999ZM1855.68 2.94999V1.94999H1855.13L1854.84 2.40401L1855.68 2.94999ZM1820.88 56.35H1819.88V59.716L1821.71 56.896L1820.88 56.35ZM1820.88 2.94999H1821.88V1.94999H1820.88V2.94999ZM1790.58 2.94999V1.94999H1789.58V2.94999H1790.58ZM1790.58 103H1789.58V104H1790.58V103ZM1820.51 103.545L1857.41 46.8455L1855.74 45.7545L1818.84 102.455L1820.51 103.545ZM1855.58 46.3V103H1857.58V46.3H1855.58ZM1856.58 104H1886.88V102H1856.58V104ZM1887.88 103V2.94999H1885.88V103H1887.88ZM1886.88 1.94999H1855.68V3.94999H1886.88V1.94999ZM1854.84 2.40401L1820.04 55.804L1821.71 56.896L1856.51 3.49597L1854.84 2.40401ZM1821.88 56.35V2.94999H1819.88V56.35H1821.88ZM1820.88 1.94999H1790.58V3.94999H1820.88V1.94999ZM1789.58 2.94999V103H1791.58V2.94999H1789.58ZM1790.58 104H1819.68V102H1790.58V104Z" fill="white"/>
</svg>
