<svg width="1224" height="90" viewBox="0 0 1224 90" fill="none" xmlns="http://www.w3.org/2000/svg">
<path opacity="0.5" d="M73.2 75.55L74.1159 75.9514L74.5101 75.0517L73.6177 74.6414L73.2 75.55ZM47.1 63.55L47.5177 62.6414L46.4982 62.1727L46.1495 63.2393L47.1 63.55ZM47.1 42.55L46.1495 42.8607L46.4999 43.9324L47.522 43.4566L47.1 42.55ZM73.2 30.4L73.622 31.3066L74.5057 30.8952L74.1171 30.0013L73.2 30.4ZM27.75 105.8C54.5109 105.8 68.1579 89.548 74.1159 75.9514L72.2841 75.1486C66.5421 88.2521 53.4891 103.8 27.75 103.8V105.8ZM73.6177 74.6414L47.5177 62.6414L46.6823 64.4586L72.7823 76.4586L73.6177 74.6414ZM46.1495 63.2393C43.7141 70.6889 36.2568 77.1 27.75 77.1V79.1C37.2432 79.1 45.3859 72.0111 48.0505 63.8607L46.1495 63.2393ZM27.75 77.1C13.8078 77.1 4.45 66.5049 4.45 53.05H2.45C2.45 67.4951 12.5922 79.1 27.75 79.1V77.1ZM4.45 53.05C4.45 39.5951 13.8078 29 27.75 29V27C12.5922 27 2.45 38.6049 2.45 53.05H4.45ZM27.75 29C36.2568 29 43.7141 35.4111 46.1495 42.8607L48.0505 42.2393C45.3859 34.0889 37.2432 27 27.75 27V29ZM47.522 43.4566L73.622 31.3066L72.778 29.4934L46.678 41.6434L47.522 43.4566ZM74.1171 30.0013C68.0035 15.9401 54.5003 0.299995 27.75 0.299995V2.3C53.4997 2.3 66.3965 17.2599 72.2829 30.7987L74.1171 30.0013ZM27.75 0.299995C-4.07417 0.299995 -28.3 21.5227 -28.3 53.05H-26.3C-26.3 22.7773 -3.12583 2.3 27.75 2.3V0.299995ZM-28.3 53.05C-28.3 84.4254 -4.07619 105.8 27.75 105.8V103.8C-3.12381 103.8 -26.3 83.1746 -26.3 53.05H-28.3ZM137.44 103V104H138.44V103H137.44ZM137.44 29.35V28.35H136.44V29.35H137.44ZM164.14 29.35V30.35H165.14V29.35H164.14ZM164.14 2.94999H165.14V1.94999H164.14V2.94999ZM80.2898 2.94999V1.94999H79.2898V2.94999H80.2898ZM80.2898 29.35H79.2898V30.35H80.2898V29.35ZM107.14 29.35H108.14V28.35H107.14V29.35ZM107.14 103H106.14V104H107.14V103ZM138.44 103V29.35H136.44V103H138.44ZM137.44 30.35H164.14V28.35H137.44V30.35ZM165.14 29.35V2.94999H163.14V29.35H165.14ZM164.14 1.94999H80.2898V3.94999H164.14V1.94999ZM79.2898 2.94999V29.35H81.2898V2.94999H79.2898ZM80.2898 30.35H107.14V28.35H80.2898V30.35ZM106.14 29.35V103H108.14V29.35H106.14ZM107.14 104H137.44V102H107.14V104ZM224.319 105.8C255.697 105.8 280.069 84.4237 280.069 53.05H278.069C278.069 83.1763 254.741 103.8 224.319 103.8V105.8ZM280.069 53.05C280.069 21.6763 255.697 0.299995 224.319 0.299995V2.3C254.741 2.3 278.069 22.9237 278.069 53.05H280.069ZM224.319 0.299995C192.941 0.299995 168.569 21.6763 168.569 53.05H170.569C170.569 22.9237 193.897 2.3 224.319 2.3V0.299995ZM168.569 53.05C168.569 84.4237 192.941 105.8 224.319 105.8V103.8C193.897 103.8 170.569 83.1763 170.569 53.05H168.569ZM224.319 77.1C210.393 77.1 201.319 66.5222 201.319 53.05H199.319C199.319 67.4778 209.145 79.1 224.319 79.1V77.1ZM201.319 53.05C201.319 39.5778 210.393 29 224.319 29V27C209.145 27 199.319 38.6222 199.319 53.05H201.319ZM224.319 29C238.245 29 247.319 39.5778 247.319 53.05H249.319C249.319 38.6222 239.493 27 224.319 27V29ZM247.319 53.05C247.319 66.5222 238.245 77.1 224.319 77.1V79.1C239.493 79.1 249.319 67.4778 249.319 53.05H247.319ZM411.613 103V104H412.613V103H411.613ZM411.613 2.94999H412.613V1.94999H411.613V2.94999ZM369.763 2.94999V1.94999H369.064L368.824 2.6066L369.763 2.94999ZM352.213 50.95L351.274 51.2934L352.213 53.8621L353.152 51.2934L352.213 50.95ZM334.663 2.94999L335.602 2.6066L335.362 1.94999H334.663V2.94999ZM292.813 2.94999V1.94999H291.813V2.94999H292.813ZM292.813 103H291.813V104H292.813V103ZM323.113 103V104H324.113V103H323.113ZM323.113 42.85L324.05 42.5017L322.113 42.85H323.113ZM345.463 103L344.526 103.348L344.768 104H345.463V103ZM358.963 103V104H359.658L359.9 103.348L358.963 103ZM381.313 42.85H382.313L380.376 42.5017L381.313 42.85ZM381.313 103H380.313V104H381.313V103ZM412.613 103V2.94999H410.613V103H412.613ZM411.613 1.94999H369.763V3.94999H411.613V1.94999ZM368.824 2.6066L351.274 50.6066L353.152 51.2934L370.702 3.29338L368.824 2.6066ZM353.152 50.6066L335.602 2.6066L333.724 3.29338L351.274 51.2934L353.152 50.6066ZM334.663 1.94999H292.813V3.94999H334.663V1.94999ZM291.813 2.94999V103H293.813V2.94999H291.813ZM292.813 104H323.113V102H292.813V104ZM324.113 103V42.85H322.113V103H324.113ZM322.176 43.1983L344.526 103.348L346.4 102.652L324.05 42.5017L322.176 43.1983ZM345.463 104H358.963V102H345.463V104ZM359.9 103.348L382.25 43.1983L380.376 42.5017L358.026 102.652L359.9 103.348ZM380.313 42.85V103H382.313V42.85H380.313ZM381.313 104H411.613V102H381.313V104ZM531.971 103V104H533.406L532.91 102.654L531.971 103ZM495.071 2.94999L496.01 2.60396L495.768 1.94999H495.071V2.94999ZM456.971 2.94999V1.94999H456.274L456.033 2.60396L456.971 2.94999ZM420.071 103L419.133 102.654L418.637 104H420.071V103ZM454.421 103V104H455.16L455.377 103.294L454.421 103ZM458.021 91.3V90.3H457.283L457.066 91.0059L458.021 91.3ZM494.021 91.3L494.977 91.0059L494.76 90.3H494.021V91.3ZM497.621 103L496.666 103.294L496.883 104H497.621V103ZM485.922 64.9V65.9H487.275L486.877 64.6065L485.922 64.9ZM466.121 64.9L465.166 64.6065L464.768 65.9H466.121V64.9ZM476.021 32.65L476.977 32.3565L476.021 29.2424L475.066 32.3565L476.021 32.65ZM532.91 102.654L496.01 2.60396L494.133 3.29602L531.033 103.346L532.91 102.654ZM495.071 1.94999H456.971V3.94999H495.071V1.94999ZM456.033 2.60396L419.133 102.654L421.01 103.346L457.91 3.29602L456.033 2.60396ZM420.071 104H454.421V102H420.071V104ZM455.377 103.294L458.977 91.5941L457.066 91.0059L453.466 102.706L455.377 103.294ZM458.021 92.3H494.021V90.3H458.021V92.3ZM493.066 91.5941L496.666 103.294L498.577 102.706L494.977 91.0059L493.066 91.5941ZM497.621 104H531.971V102H497.621V104ZM485.922 63.9H466.121V65.9H485.922V63.9ZM467.077 65.1935L476.977 32.9435L475.066 32.3565L465.166 64.6065L467.077 65.1935ZM475.066 32.9435L484.966 65.1935L486.877 64.6065L476.977 32.3565L475.066 32.9435ZM583.18 103V104H584.18V103H583.18ZM583.18 29.35V28.35H582.18V29.35H583.18ZM609.88 29.35V30.35H610.88V29.35H609.88ZM609.88 2.94999H610.88V1.94999H609.88V2.94999ZM526.03 2.94999V1.94999H525.03V2.94999H526.03ZM526.03 29.35H525.03V30.35H526.03V29.35ZM552.88 29.35H553.88V28.35H552.88V29.35ZM552.88 103H551.88V104H552.88V103ZM584.18 103V29.35H582.18V103H584.18ZM583.18 30.35H609.88V28.35H583.18V30.35ZM610.88 29.35V2.94999H608.88V29.35H610.88ZM609.88 1.94999H526.03V3.94999H609.88V1.94999ZM525.03 2.94999V29.35H527.03V2.94999H525.03ZM526.03 30.35H552.88V28.35H526.03V30.35ZM551.88 29.35V103H553.88V29.35H551.88ZM552.88 104H583.18V102H552.88V104ZM670.059 105.8C701.437 105.8 725.809 84.4237 725.809 53.05H723.809C723.809 83.1763 700.481 103.8 670.059 103.8V105.8ZM725.809 53.05C725.809 21.6763 701.437 0.299995 670.059 0.299995V2.3C700.481 2.3 723.809 22.9237 723.809 53.05H725.809ZM670.059 0.299995C638.681 0.299995 614.309 21.6763 614.309 53.05H616.309C616.309 22.9237 639.637 2.3 670.059 2.3V0.299995ZM614.309 53.05C614.309 84.4237 638.681 105.8 670.059 105.8V103.8C639.637 103.8 616.309 83.1763 616.309 53.05H614.309ZM670.059 77.1C656.133 77.1 647.059 66.5222 647.059 53.05H645.059C645.059 67.4778 654.885 79.1 670.059 79.1V77.1ZM647.059 53.05C647.059 39.5778 656.133 29 670.059 29V27C654.885 27 645.059 38.6222 645.059 53.05H647.059ZM670.059 29C683.985 29 693.059 39.5778 693.059 53.05H695.059C695.059 38.6222 685.233 27 670.059 27V29ZM693.059 53.05C693.059 66.5222 683.985 77.1 670.059 77.1V79.1C685.233 79.1 695.059 67.4778 695.059 53.05H693.059ZM728.912 104.8H727.912V105.8H728.912V104.8ZM776.312 55.6L775.32 55.4753L775.319 55.4792L776.312 55.6ZM779.612 29.35V28.35H778.73L778.62 29.2253L779.612 29.35ZM800.162 29.35H801.162V28.35H800.162V29.35ZM800.162 103H799.162V104H800.162V103ZM830.462 103V104H831.462V103H830.462ZM830.462 2.94999H831.462V1.94999H830.462V2.94999ZM752.312 2.94999V1.94999H751.427L751.319 2.82887L752.312 2.94999ZM746.162 53.35L747.154 53.475L747.155 53.4711L746.162 53.35ZM728.912 78.1V77.1H727.912V78.1H728.912ZM728.912 105.8C740.666 105.8 751.596 103.336 760.193 95.7433C768.787 88.1537 774.888 75.5831 777.305 55.7208L775.319 55.4792C772.936 75.0669 766.963 87.0963 758.869 94.2442C750.779 101.389 740.408 103.8 728.912 103.8V105.8ZM777.304 55.7247L780.604 29.4747L778.62 29.2253L775.32 55.4753L777.304 55.7247ZM779.612 30.35H800.162V28.35H779.612V30.35ZM799.162 29.35V103H801.162V29.35H799.162ZM800.162 104H830.462V102H800.162V104ZM831.462 103V2.94999H829.462V103H831.462ZM830.462 1.94999H752.312V3.94999H830.462V1.94999ZM751.319 2.82887L745.169 53.2289L747.155 53.4711L753.305 3.07112L751.319 2.82887ZM745.17 53.225C743.978 62.6855 741.833 68.6609 739.052 72.257C736.324 75.7846 732.923 77.1 728.912 77.1V79.1C733.451 79.1 737.475 77.5654 740.634 73.4805C743.741 69.4641 745.946 63.0644 747.154 53.475L745.17 53.225ZM727.912 78.1V104.8H729.912V78.1H727.912ZM899.009 105.8C930.387 105.8 954.759 84.4237 954.759 53.05H952.759C952.759 83.1763 929.431 103.8 899.009 103.8V105.8ZM954.759 53.05C954.759 21.6763 930.387 0.299995 899.009 0.299995V2.3C929.431 2.3 952.759 22.9237 952.759 53.05H954.759ZM899.009 0.299995C867.631 0.299995 843.259 21.6763 843.259 53.05H845.259C845.259 22.9237 868.587 2.3 899.009 2.3V0.299995ZM843.259 53.05C843.259 84.4237 867.631 105.8 899.009 105.8V103.8C868.587 103.8 845.259 83.1763 845.259 53.05H843.259ZM899.009 77.1C885.083 77.1 876.009 66.5222 876.009 53.05H874.009C874.009 67.4778 883.835 79.1 899.009 79.1V77.1ZM876.009 53.05C876.009 39.5778 885.083 29 899.009 29V27C883.835 27 874.009 38.6222 874.009 53.05H876.009ZM899.009 29C912.935 29 922.009 39.5778 922.009 53.05H924.009C924.009 38.6222 914.183 27 899.009 27V29ZM922.009 53.05C922.009 66.5222 912.935 77.1 899.009 77.1V79.1C914.183 79.1 924.009 67.4778 924.009 53.05H922.009ZM997.802 103V104H998.802V103H997.802ZM997.802 29.35V28.35H996.802V29.35H997.802ZM1043.4 29.35V30.35H1044.4V29.35H1043.4ZM1043.4 2.94999H1044.4V1.94999H1043.4V2.94999ZM967.502 2.94999V1.94999H966.502V2.94999H967.502ZM967.502 103H966.502V104H967.502V103ZM998.802 103V29.35H996.802V103H998.802ZM997.802 30.35H1043.4V28.35H997.802V30.35ZM1044.4 29.35V2.94999H1042.4V29.35H1044.4ZM1043.4 1.94999H967.502V3.94999H1043.4V1.94999ZM966.502 2.94999V103H968.502V2.94999H966.502ZM967.502 104H997.802V102H967.502V104ZM1088.37 103V104H1088.91L1089.21 103.545L1088.37 103ZM1125.27 46.3H1126.27V42.9301L1124.43 45.7545L1125.27 46.3ZM1125.27 103H1124.27V104H1125.27V103ZM1155.57 103V104H1156.57V103H1155.57ZM1155.57 2.94999H1156.57V1.94999H1155.57V2.94999ZM1124.37 2.94999V1.94999H1123.83L1123.53 2.40401L1124.37 2.94999ZM1089.57 56.35H1088.57V59.716L1090.41 56.896L1089.57 56.35ZM1089.57 2.94999H1090.57V1.94999H1089.57V2.94999ZM1059.27 2.94999V1.94999H1058.27V2.94999H1059.27ZM1059.27 103H1058.27V104H1059.27V103ZM1089.21 103.545L1126.11 46.8455L1124.43 45.7545L1087.53 102.455L1089.21 103.545ZM1124.27 46.3V103H1126.27V46.3H1124.27ZM1125.27 104H1155.57V102H1125.27V104ZM1156.57 103V2.94999H1154.57V103H1156.57ZM1155.57 1.94999H1124.37V3.94999H1155.57V1.94999ZM1123.53 2.40401L1088.73 55.804L1090.41 56.896L1125.21 3.49597L1123.53 2.40401ZM1090.57 56.35V2.94999H1088.57V56.35H1090.57ZM1089.57 1.94999H1059.27V3.94999H1089.57V1.94999ZM1058.27 2.94999V103H1060.27V2.94999H1058.27ZM1059.27 104H1088.37V102H1059.27V104ZM1205.22 103V104H1205.88L1206.14 103.401L1205.22 103ZM1219.02 71.5V70.5H1218.37L1218.11 71.0987L1219.02 71.5ZM1229.97 71.5H1230.97V70.5H1229.97V71.5ZM1229.97 103H1228.97V104H1229.97V103ZM1260.27 103V104H1261.27V103H1260.27ZM1260.27 2.94999H1261.27V1.94999H1260.27V2.94999ZM1188.87 67.6L1189.76 68.0562L1190.23 67.1505L1189.31 66.7022L1188.87 67.6ZM1170.72 103L1169.83 102.544L1169.09 104H1170.72V103ZM1229.97 29.35H1230.97V28.35H1229.97V29.35ZM1229.97 45.1V46.1H1230.97V45.1H1229.97ZM1206.14 103.401L1219.94 71.9013L1218.11 71.0987L1204.31 102.599L1206.14 103.401ZM1219.02 72.5H1229.97V70.5H1219.02V72.5ZM1228.97 71.5V103H1230.97V71.5H1228.97ZM1229.97 104H1260.27V102H1229.97V104ZM1261.27 103V2.94999H1259.27V103H1261.27ZM1260.27 1.94999H1206.87V3.94999H1260.27V1.94999ZM1206.87 1.94999C1194.94 1.94999 1185.67 5.93352 1179.38 12.3964C1173.1 18.8518 1169.87 27.7016 1169.87 37.3H1171.87C1171.87 28.1484 1174.94 19.8232 1180.81 13.7911C1186.68 7.76646 1195.4 3.94999 1206.87 3.94999V1.94999ZM1169.87 37.3C1169.87 55.0222 1180.23 64.4738 1188.43 68.4978L1189.31 66.7022C1181.61 62.9262 1171.87 54.0778 1171.87 37.3H1169.87ZM1187.98 67.1438L1169.83 102.544L1171.61 103.456L1189.76 68.0562L1187.98 67.1438ZM1170.72 104H1205.22V102H1170.72V104ZM1211.52 44.1C1209.11 44.1 1206.86 43.5295 1205.24 42.3886C1203.66 41.2768 1202.62 39.5904 1202.62 37.15H1200.62C1200.62 40.2596 1201.99 42.5482 1204.08 44.0239C1206.14 45.4705 1208.83 46.1 1211.52 46.1V44.1ZM1202.62 37.15C1202.62 34.795 1203.65 33.1448 1205.23 32.0466C1206.85 30.9205 1209.11 30.35 1211.52 30.35V28.35C1208.83 28.35 1206.14 28.9795 1204.09 30.4034C1202 31.8552 1200.62 34.105 1200.62 37.15H1202.62ZM1211.52 30.35H1229.97V28.35H1211.52V30.35ZM1228.97 29.35V45.1H1230.97V29.35H1228.97ZM1229.97 44.1H1211.52V46.1H1229.97V44.1Z" fill="white"/>
</svg>
