<svg width="1161" height="105" viewBox="0 0 1161 105" fill="none" xmlns="http://www.w3.org/2000/svg">
<path opacity="0.5" d="M96.35 103V104H98.3288L97.1551 102.407L96.35 103ZM56.9 49.45L56.124 48.8192L55.6358 49.4199L56.0949 50.0431L56.9 49.45ZM94.7 2.94999L95.476 3.58077L96.8016 1.94999H94.7V2.94999ZM57.65 2.94999V1.94999H57.1293L56.8308 2.37653L57.65 2.94999ZM31.4 40.45H30.4V43.6224L32.2192 41.0235L31.4 40.45ZM31.4 2.94999H32.4V1.94999H31.4V2.94999ZM1.1 2.94999V1.94999H0.1V2.94999H1.1ZM1.1 103H0.1V104H1.1V103ZM31.4 103V104H32.4V103H31.4ZM31.4 75.25L30.5962 74.6552L30.4 74.9202V75.25H31.4ZM36.95 67.75L37.7929 67.212L37.0108 65.9867L36.1462 67.1552L36.95 67.75ZM59.45 103L58.6071 103.538L58.902 104H59.45V103ZM97.1551 102.407L57.7051 48.8569L56.0949 50.0431L95.5449 103.593L97.1551 102.407ZM57.676 50.0808L95.476 3.58077L93.924 2.31921L56.124 48.8192L57.676 50.0808ZM94.7 1.94999H57.65V3.94999H94.7V1.94999ZM56.8308 2.37653L30.5808 39.8765L32.2192 41.0235L58.4692 3.52345L56.8308 2.37653ZM32.4 40.45V2.94999H30.4V40.45H32.4ZM31.4 1.94999H1.1V3.94999H31.4V1.94999ZM0.1 2.94999V103H2.1V2.94999H0.1ZM1.1 104H31.4V102H1.1V104ZM32.4 103V75.25H30.4V103H32.4ZM32.2038 75.8448L37.7538 68.3448L36.1462 67.1552L30.5962 74.6552L32.2038 75.8448ZM36.1071 68.288L58.6071 103.538L60.2929 102.462L37.7929 67.212L36.1071 68.288ZM59.45 104H96.35V102H59.45V104ZM148.079 105.8C179.457 105.8 203.829 84.4237 203.829 53.05H201.829C201.829 83.1763 178.501 103.8 148.079 103.8V105.8ZM203.829 53.05C203.829 21.6763 179.457 0.299995 148.079 0.299995V2.3C178.501 2.3 201.829 22.9237 201.829 53.05H203.829ZM148.079 0.299995C116.701 0.299995 92.3289 21.6763 92.3289 53.05H94.3289C94.3289 22.9237 117.657 2.3 148.079 2.3V0.299995ZM92.3289 53.05C92.3289 84.4237 116.701 105.8 148.079 105.8V103.8C117.657 103.8 94.3289 83.1763 94.3289 53.05H92.3289ZM148.079 77.1C134.153 77.1 125.079 66.5222 125.079 53.05H123.079C123.079 67.4778 132.905 79.1 148.079 79.1V77.1ZM125.079 53.05C125.079 39.5778 134.153 29 148.079 29V27C132.905 27 123.079 38.6222 123.079 53.05H125.079ZM148.079 29C162.005 29 171.079 39.5778 171.079 53.05H173.079C173.079 38.6222 163.253 27 148.079 27V29ZM171.079 53.05C171.079 66.5222 162.005 77.1 148.079 77.1V79.1C163.253 79.1 173.079 67.4778 173.079 53.05H171.079ZM311.673 75.55L312.589 75.9514L312.983 75.0517L312.09 74.6414L311.673 75.55ZM285.573 63.55L285.99 62.6414L284.971 62.1727L284.622 63.2393L285.573 63.55ZM285.573 42.55L284.622 42.8607L284.973 43.9324L285.995 43.4566L285.573 42.55ZM311.673 30.4L312.095 31.3066L312.978 30.8952L312.59 30.0013L311.673 30.4ZM266.223 105.8C292.984 105.8 306.631 89.548 312.589 75.9514L310.757 75.1486C305.015 88.2521 291.962 103.8 266.223 103.8V105.8ZM312.09 74.6414L285.99 62.6414L285.155 64.4586L311.255 76.4586L312.09 74.6414ZM284.622 63.2393C282.187 70.6889 274.729 77.1 266.223 77.1V79.1C275.716 79.1 283.859 72.0111 286.523 63.8607L284.622 63.2393ZM266.223 77.1C252.28 77.1 242.923 66.5049 242.923 53.05H240.923C240.923 67.4951 251.065 79.1 266.223 79.1V77.1ZM242.923 53.05C242.923 39.5951 252.28 29 266.223 29V27C251.065 27 240.923 38.6049 240.923 53.05H242.923ZM266.223 29C274.729 29 282.187 35.4111 284.622 42.8607L286.523 42.2393C283.859 34.0889 275.716 27 266.223 27V29ZM285.995 43.4566L312.095 31.3066L311.251 29.4934L285.151 41.6434L285.995 43.4566ZM312.59 30.0013C306.476 15.9401 292.973 0.299995 266.223 0.299995V2.3C291.972 2.3 304.869 17.2599 310.756 30.7987L312.59 30.0013ZM266.223 0.299995C234.398 0.299995 210.173 21.5227 210.173 53.05H212.173C212.173 22.7773 235.347 2.3 266.223 2.3V0.299995ZM210.173 53.05C210.173 84.4254 234.396 105.8 266.223 105.8V103.8C235.349 103.8 212.173 83.1746 212.173 53.05H210.173ZM442.962 103V104H443.962V103H442.962ZM442.962 2.94999H443.962V1.94999H442.962V2.94999ZM401.113 2.94999V1.94999H400.413L400.173 2.6066L401.113 2.94999ZM383.562 50.95L382.623 51.2934L383.562 53.8621L384.502 51.2934L383.562 50.95ZM366.013 2.94999L366.952 2.6066L366.712 1.94999H366.013V2.94999ZM324.163 2.94999V1.94999H323.163V2.94999H324.163ZM324.163 103H323.163V104H324.163V103ZM354.462 103V104H355.462V103H354.462ZM354.462 42.85L355.4 42.5017L353.462 42.85H354.462ZM376.812 103L375.875 103.348L376.117 104H376.812V103ZM390.312 103V104H391.008L391.25 103.348L390.312 103ZM412.663 42.85H413.663L411.725 42.5017L412.663 42.85ZM412.663 103H411.663V104H412.663V103ZM443.962 103V2.94999H441.962V103H443.962ZM442.962 1.94999H401.113V3.94999H442.962V1.94999ZM400.173 2.6066L382.623 50.6066L384.502 51.2934L402.052 3.29338L400.173 2.6066ZM384.502 50.6066L366.952 2.6066L365.073 3.29338L382.623 51.2934L384.502 50.6066ZM366.013 1.94999H324.163V3.94999H366.013V1.94999ZM323.163 2.94999V103H325.163V2.94999H323.163ZM324.163 104H354.462V102H324.163V104ZM355.462 103V42.85H353.462V103H355.462ZM353.525 43.1983L375.875 103.348L377.75 102.652L355.4 42.5017L353.525 43.1983ZM376.812 104H390.312V102H376.812V104ZM391.25 103.348L413.6 43.1983L411.725 42.5017L389.375 102.652L391.25 103.348ZM411.663 42.85V103H413.663V42.85H411.663ZM412.663 104H442.962V102H412.663V104ZM538.121 103V104H539.121V103H538.121ZM538.121 76.6H539.121V75.6H538.121V76.6ZM492.521 76.6H491.521V77.6H492.521V76.6ZM492.521 65.65V64.65H491.521V65.65H492.521ZM537.071 65.65V66.65H538.071V65.65H537.071ZM537.071 39.25H538.071V38.25H537.071V39.25ZM492.521 39.25H491.521V40.25H492.521V39.25ZM492.521 29.35V28.35H491.521V29.35H492.521ZM538.121 29.35V30.35H539.121V29.35H538.121ZM538.121 2.94999H539.121V1.94999H538.121V2.94999ZM462.221 2.94999V1.94999H461.221V2.94999H462.221ZM462.221 103H461.221V104H462.221V103ZM539.121 103V76.6H537.121V103H539.121ZM538.121 75.6H492.521V77.6H538.121V75.6ZM493.521 76.6V65.65H491.521V76.6H493.521ZM492.521 66.65H537.071V64.65H492.521V66.65ZM538.071 65.65V39.25H536.071V65.65H538.071ZM537.071 38.25H492.521V40.25H537.071V38.25ZM493.521 39.25V29.35H491.521V39.25H493.521ZM492.521 30.35H538.121V28.35H492.521V30.35ZM539.121 29.35V2.94999H537.121V29.35H539.121ZM538.121 1.94999H462.221V3.94999H538.121V1.94999ZM461.221 2.94999V103H463.221V2.94999H461.221ZM462.221 104H538.121V102H462.221V104ZM606.327 103V104H607.327V103H606.327ZM606.327 29.35V28.35H605.327V29.35H606.327ZM633.027 29.35V30.35H634.027V29.35H633.027ZM633.027 2.94999H634.027V1.94999H633.027V2.94999ZM549.177 2.94999V1.94999H548.177V2.94999H549.177ZM549.177 29.35H548.177V30.35H549.177V29.35ZM576.027 29.35H577.027V28.35H576.027V29.35ZM576.027 103H575.027V104H576.027V103ZM607.327 103V29.35H605.327V103H607.327ZM606.327 30.35H633.027V28.35H606.327V30.35ZM634.027 29.35V2.94999H632.027V29.35H634.027ZM633.027 1.94999H549.177V3.94999H633.027V1.94999ZM548.177 2.94999V29.35H550.177V2.94999H548.177ZM549.177 30.35H576.027V28.35H549.177V30.35ZM575.027 29.35V103H577.027V29.35H575.027ZM576.027 104H606.327V102H576.027V104ZM632.75 104.8H631.75V105.8H632.75V104.8ZM680.15 55.6L679.158 55.4753L679.157 55.4792L680.15 55.6ZM683.45 29.35V28.35H682.568L682.458 29.2253L683.45 29.35ZM704 29.35H705V28.35H704V29.35ZM704 103H703V104H704V103ZM734.3 103V104H735.3V103H734.3ZM734.3 2.94999H735.3V1.94999H734.3V2.94999ZM656.15 2.94999V1.94999H655.265L655.157 2.82887L656.15 2.94999ZM650 53.35L650.992 53.475L650.993 53.4711L650 53.35ZM632.75 78.1V77.1H631.75V78.1H632.75ZM632.75 105.8C644.504 105.8 655.434 103.336 664.031 95.7433C672.625 88.1537 678.726 75.5831 681.143 55.7208L679.157 55.4792C676.774 75.0669 670.8 87.0963 662.707 94.2442C654.616 101.389 644.246 103.8 632.75 103.8V105.8ZM681.142 55.7247L684.442 29.4747L682.458 29.2253L679.158 55.4753L681.142 55.7247ZM683.45 30.35H704V28.35H683.45V30.35ZM703 29.35V103H705V29.35H703ZM704 104H734.3V102H704V104ZM735.3 103V2.94999H733.3V103H735.3ZM734.3 1.94999H656.15V3.94999H734.3V1.94999ZM655.157 2.82887L649.007 53.2289L650.993 53.4711L657.143 3.07112L655.157 2.82887ZM649.008 53.225C647.816 62.6855 645.671 68.6609 642.89 72.257C640.162 75.7846 636.761 77.1 632.75 77.1V79.1C637.289 79.1 641.313 77.5654 644.472 73.4805C647.579 69.4641 649.784 63.0644 650.992 53.475L649.008 53.225ZM631.75 78.1V104.8H633.75V78.1H631.75ZM802.846 105.8C834.225 105.8 858.596 84.4237 858.596 53.05H856.596C856.596 83.1763 833.268 103.8 802.846 103.8V105.8ZM858.596 53.05C858.596 21.6763 834.225 0.299995 802.846 0.299995V2.3C833.268 2.3 856.596 22.9237 856.596 53.05H858.596ZM802.846 0.299995C771.468 0.299995 747.096 21.6763 747.096 53.05H749.096C749.096 22.9237 772.425 2.3 802.846 2.3V0.299995ZM747.096 53.05C747.096 84.4237 771.468 105.8 802.846 105.8V103.8C772.425 103.8 749.096 83.1763 749.096 53.05H747.096ZM802.846 77.1C788.92 77.1 779.846 66.5222 779.846 53.05H777.846C777.846 67.4778 787.673 79.1 802.846 79.1V77.1ZM779.846 53.05C779.846 39.5778 788.92 29 802.846 29V27C787.673 27 777.846 38.6222 777.846 53.05H779.846ZM802.846 29C816.773 29 825.846 39.5778 825.846 53.05H827.846C827.846 38.6222 818.02 27 802.846 27V29ZM825.846 53.05C825.846 66.5222 816.773 77.1 802.846 77.1V79.1C818.02 79.1 827.846 67.4778 827.846 53.05H825.846ZM901.64 103V104H902.64V103H901.64ZM901.64 29.35V28.35H900.64V29.35H901.64ZM947.24 29.35V30.35H948.24V29.35H947.24ZM947.24 2.94999H948.24V1.94999H947.24V2.94999ZM871.34 2.94999V1.94999H870.34V2.94999H871.34ZM871.34 103H870.34V104H871.34V103ZM902.64 103V29.35H900.64V103H902.64ZM901.64 30.35H947.24V28.35H901.64V30.35ZM948.24 29.35V2.94999H946.24V29.35H948.24ZM947.24 1.94999H871.34V3.94999H947.24V1.94999ZM870.34 2.94999V103H872.34V2.94999H870.34ZM871.34 104H901.64V102H871.34V104ZM992.21 103V104H992.752L993.048 103.545L992.21 103ZM1029.11 46.3H1030.11V42.9301L1028.27 45.7545L1029.11 46.3ZM1029.11 103H1028.11V104H1029.11V103ZM1059.41 103V104H1060.41V103H1059.41ZM1059.41 2.94999H1060.41V1.94999H1059.41V2.94999ZM1028.21 2.94999V1.94999H1027.67L1027.37 2.40401L1028.21 2.94999ZM993.41 56.35H992.41V59.716L994.248 56.896L993.41 56.35ZM993.41 2.94999H994.41V1.94999H993.41V2.94999ZM963.11 2.94999V1.94999H962.11V2.94999H963.11ZM963.11 103H962.11V104H963.11V103ZM993.048 103.545L1029.95 46.8455L1028.27 45.7545L991.372 102.455L993.048 103.545ZM1028.11 46.3V103H1030.11V46.3H1028.11ZM1029.11 104H1059.41V102H1029.11V104ZM1060.41 103V2.94999H1058.41V103H1060.41ZM1059.41 1.94999H1028.21V3.94999H1059.41V1.94999ZM1027.37 2.40401L992.572 55.804L994.248 56.896L1029.05 3.49597L1027.37 2.40401ZM994.41 56.35V2.94999H992.41V56.35H994.41ZM993.41 1.94999H963.11V3.94999H993.41V1.94999ZM962.11 2.94999V103H964.11V2.94999H962.11ZM963.11 104H992.21V102H963.11V104ZM1109.06 103V104H1109.71L1109.98 103.401L1109.06 103ZM1122.86 71.5V70.5H1122.21L1121.94 71.0987L1122.86 71.5ZM1133.81 71.5H1134.81V70.5H1133.81V71.5ZM1133.81 103H1132.81V104H1133.81V103ZM1164.11 103V104H1165.11V103H1164.11ZM1164.11 2.94999H1165.11V1.94999H1164.11V2.94999ZM1092.71 67.6L1093.6 68.0562L1094.06 67.1505L1093.15 66.7022L1092.71 67.6ZM1074.56 103L1073.67 102.544L1072.92 104H1074.56V103ZM1133.81 29.35H1134.81V28.35H1133.81V29.35ZM1133.81 45.1V46.1H1134.81V45.1H1133.81ZM1109.98 103.401L1123.78 71.9013L1121.94 71.0987L1108.14 102.599L1109.98 103.401ZM1122.86 72.5H1133.81V70.5H1122.86V72.5ZM1132.81 71.5V103H1134.81V71.5H1132.81ZM1133.81 104H1164.11V102H1133.81V104ZM1165.11 103V2.94999H1163.11V103H1165.11ZM1164.11 1.94999H1110.71V3.94999H1164.11V1.94999ZM1110.71 1.94999C1098.78 1.94999 1089.51 5.93352 1083.22 12.3964C1076.94 18.8518 1073.71 27.7016 1073.71 37.3H1075.71C1075.71 28.1484 1078.78 19.8232 1084.65 13.7911C1090.51 7.76647 1099.24 3.94999 1110.71 3.94999V1.94999ZM1073.71 37.3C1073.71 55.0222 1084.07 64.4738 1092.27 68.4978L1093.15 66.7022C1085.45 62.9262 1075.71 54.0778 1075.71 37.3H1073.71ZM1091.82 67.1438L1073.67 102.544L1075.45 103.456L1093.6 68.0562L1091.82 67.1438ZM1074.56 104H1109.06V102H1074.56V104ZM1115.36 44.1C1112.95 44.1 1110.69 43.5295 1109.07 42.3886C1107.49 41.2768 1106.46 39.5904 1106.46 37.15H1104.46C1104.46 40.2596 1105.83 42.5482 1107.92 44.0239C1109.98 45.4705 1112.67 46.1 1115.36 46.1V44.1ZM1106.46 37.15C1106.46 34.795 1107.48 33.1448 1109.07 32.0466C1110.69 30.9205 1112.95 30.35 1115.36 30.35V28.35C1112.67 28.35 1109.98 28.9795 1107.93 30.4034C1105.83 31.8552 1104.46 34.105 1104.46 37.15H1106.46ZM1115.36 30.35H1133.81V28.35H1115.36V30.35ZM1132.81 29.35V45.1H1134.81V29.35H1132.81ZM1133.81 44.1H1115.36V46.1H1133.81V44.1Z" fill="white"/>
</svg>
